<svg xmlns="http://www.w3.org/2000/svg" width="26.115" height="26.118" viewBox="0 0 26.115 26.118">
  <path id="home" d="M25.913,11.359l0,0L15.258.7a2.4,2.4,0,0,0-3.4,0L1.209,11.352l-.011.011a2.4,2.4,0,0,0,1.6,4.1c.025,0,.049,0,.074,0H3.3V23.3a2.817,2.817,0,0,0,2.814,2.814h4.168a.765.765,0,0,0,.765-.765V19.2a1.285,1.285,0,0,1,1.284-1.284h2.458A1.285,1.285,0,0,1,16.071,19.2v6.147a.765.765,0,0,0,.765.765H21A2.817,2.817,0,0,0,23.818,23.3v-7.84h.394a2.4,2.4,0,0,0,1.7-4.1ZM24.83,13.676a.869.869,0,0,1-.618.256H23.053a.765.765,0,0,0-.765.765V23.3A1.285,1.285,0,0,1,21,24.587H17.6V19.2a2.817,2.817,0,0,0-2.814-2.814H12.328A2.818,2.818,0,0,0,9.514,19.2v5.382h-3.4A1.285,1.285,0,0,1,4.827,23.3V14.7a.765.765,0,0,0-.765-.765H2.923l-.036,0a.873.873,0,0,1-.6-1.491h0L12.94,1.786a.874.874,0,0,1,1.236,0L24.827,12.437l0,0a.876.876,0,0,1,0,1.235Zm0,0" transform="translate(-0.5 0.001)" fill="#65539e"/>
</svg>
