<svg id="chicken" xmlns="http://www.w3.org/2000/svg" width="31.308" height="28.78" viewBox="0 0 31.308 28.78">
  <path id="Path_169" data-name="Path 169" d="M160.2,356.33H139.451v.917H160.2a.459.459,0,0,1,.459.459v.917a.459.459,0,0,1-.459.459H146.377V360H158.6l-.666,1.664c-.508,1.27-.976,2-1.867,2h-17.32v.917h17.32c1.686,0,2.333-1.616,2.719-2.581l.8-2h.607a1.377,1.377,0,0,0,1.376-1.376v-.917A1.377,1.377,0,0,0,160.2,356.33Z" transform="translate(-130.265 -335.805)" fill="#fff"/>
  <path id="Path_170" data-name="Path 170" d="M3.636,361.663,2.97,360H15.2v-.917H1.376a.459.459,0,0,1-.459-.459v-.917a.459.459,0,0,1,.459-.459H8.269v-.917H1.376A1.377,1.377,0,0,0,0,357.706v.917A1.377,1.377,0,0,0,1.376,360h.607l.8,2c.386.965,1.032,2.581,2.719,2.581H7.567v-.917H5.5c-.891,0-1.359-.735-1.867-2Z" transform="translate(0 -335.805)" fill="#fff"/>
  <path id="Path_171" data-name="Path 171" d="M50.39,96.5l.888.228a5.6,5.6,0,0,1,4.472-4.137,10.463,10.463,0,0,0-.172,1.89H56.5a9.475,9.475,0,0,1,9.484-9.484v-.917a10.391,10.391,0,0,0-6.107,1.975,5.683,5.683,0,0,0-1.88-5.025l-.222-.2-.276.124a5.816,5.816,0,0,0-2.8,2.561A5.925,5.925,0,0,0,54.017,86a6.066,6.066,0,0,0-2.034-.217l-.3.017-.1.284a5.754,5.754,0,0,0,1.695,6.481A6.521,6.521,0,0,0,50.39,96.5Zm7.2-14.581a4.82,4.82,0,0,1,1.093,5.139,10.367,10.367,0,0,0-1.313,1.573c-.1-.165-.206-.329-.325-.49l.353-2.173-.905-.147L56.26,87.26a5.679,5.679,0,0,0-1.333-.909A4.806,4.806,0,0,1,57.592,81.915ZM52.343,86.69h.016a4.853,4.853,0,0,1,4.459,2.852,10.378,10.378,0,0,0-.662,1.507l-1.042-1.4-.736.547L55.5,91.7a6.529,6.529,0,0,0-1.326.4,4.843,4.843,0,0,1-1.829-5.411Z" transform="translate(-47.309 -77.143)" fill="#fff"/>
  <path id="Path_172" data-name="Path 172" d="M436.238,216.929a10.464,10.464,0,0,0-1.565-7.919l-.76.514a9.541,9.541,0,0,1,1.427,7.22Z" transform="translate(-407.38 -197.494)" fill="#fff"/>
  <path id="Path_173" data-name="Path 173" d="M423.179,254.446l-.858.325a7.565,7.565,0,0,1,.259.824l.889-.225A8.491,8.491,0,0,0,423.179,254.446Z" transform="translate(-396.497 -240.151)" fill="#fff"/>
  <path id="Path_174" data-name="Path 174" d="M428.167,288.2a8.592,8.592,0,0,0,.136-3.081l-.909.124a7.676,7.676,0,0,1-.121,2.753Z" transform="translate(-401.146 -268.948)" fill="#fff"/>
  <path id="Path_175" data-name="Path 175" d="M253.982,31.222a4.68,4.68,0,0,0-.967,2.943l.917-.02a3.75,3.75,0,0,1,3.145-3.779l.143-.023,1.533-1.493a2.332,2.332,0,1,1,3.7,2.843l-1.05,1.865.014.144a3.751,3.751,0,0,1-7.377,1.254l-.891.216a4.68,4.68,0,0,0,1.69,2.6,4.633,4.633,0,0,0,2.836.968,4.745,4.745,0,0,0,.614-.04,4.668,4.668,0,0,0,4.053-4.937l.91-1.617a4.081,4.081,0,0,0,.539-2.374,3.123,3.123,0,0,0-.278-1.022l1.726-2.244.662-.861a1.834,1.834,0,1,0,.767-3.254q0-.058-.011-.115a1.834,1.834,0,1,0-2.937,1.692l-.615.8-1.773,2.305a3.122,3.122,0,0,0-1.059-.007,4.081,4.081,0,0,0-2.156,1.13l-1.329,1.295a4.649,4.649,0,0,0-2.8,1.735Zm10.126-9.271a.917.917,0,0,1,1.454,1.118l.727.559a.917.917,0,1,1,.168,1.286l-.727-.559-.895,1.163-.727-.559L265,23.8l-.727-.559A.918.918,0,0,1,264.108,21.951Zm-.559,3.736.727.559-1.314,1.708a3.158,3.158,0,0,0-.727-.559Z" transform="translate(-237.543 -20.676)" fill="#fff"/>
  <path id="Path_176" data-name="Path 176" d="M359.87,238.307a2.8,2.8,0,0,0,.15-1.081l-.916.051a1.885,1.885,0,0,1-.1.728Z" transform="translate(-337.052 -223.984)" fill="#fff"/>
  <path id="Path_177" data-name="Path 177" d="M301.662,260.553l-.559.727a2.756,2.756,0,0,0,1.7.595,2.934,2.934,0,0,0,2.153-.97l-.685-.61A1.912,1.912,0,0,1,301.662,260.553Z" transform="translate(-282.691 -245.643)" fill="#fff"/>
  <path id="Path_178" data-name="Path 178" d="M135.23,319.144h.917v.917h-.917Z" transform="translate(-126.961 -300.893)" fill="#fff"/>
  <path id="Path_179" data-name="Path 179" d="M0,0H.917V.917H0Z" transform="translate(5.975 11.574) rotate(-36.664)" fill="#fff"/>
  <path id="Path_180" data-name="Path 180" d="M0,0H.917V.917H0Z" transform="matrix(0.16, -0.987, 0.987, 0.16, 9.33, 7.767)" fill="#fff"/>
  <path id="Path_181" data-name="Path 181" d="M387.167,431.33h2.752v.917h-2.752Z" transform="translate(-363.492 -406.219)" fill="#fff"/>
  <path id="Path_182" data-name="Path 182" d="M357.167,431.33h.917v.917h-.917Z" transform="translate(-335.327 -406.219)" fill="#fff"/>
</svg>
