<svg id="bread" xmlns="http://www.w3.org/2000/svg" width="26.2" height="26.2" viewBox="0 0 26.2 26.2">
  <path id="Path_167" data-name="Path 167" d="M87.261,206.621a.437.437,0,1,0,.321-.812,11.064,11.064,0,0,0-7.308,0,.437.437,0,1,0,.321.812,10.2,10.2,0,0,1,6.665,0Z" transform="translate(-76.505 -194.862)" fill="#fff"/>
  <path id="Path_168" data-name="Path 168" d="M37.833,16H36.086c-1.275,0-2.381,1.389-3.2,4.016a25.246,25.246,0,0,0-.882,4.28H22.987V24.3a12.691,12.691,0,0,0-4.68.936C16.819,25.9,16,26.815,16,27.824a2.829,2.829,0,0,0,1.747,2.307v8.033a3.585,3.585,0,0,0-1.279,2.113,1.62,1.62,0,0,0,.338,1.346,1.571,1.571,0,0,0,1.216.577H34.064a1.566,1.566,0,0,0,.975-.34,1.861,1.861,0,0,0,1.047.34h1.747c1.275,0,2.381-1.389,3.2-4.016A31.93,31.93,0,0,0,42.2,29.1a31.93,31.93,0,0,0-1.171-9.084C40.214,17.389,39.108,16,37.833,16ZM18.022,41.326a.7.7,0,0,1-.542-.259.75.75,0,0,1-.156-.623,2.7,2.7,0,0,1,1.6-1.974,6.107,6.107,0,0,0-.266,1.041,2.567,2.567,0,0,0,.37,1.816Zm2.781,0H20.55a.927.927,0,0,1-.7-.355,1.644,1.644,0,0,1-.331-1.32,4.481,4.481,0,0,1,1.852-3.063,4.7,4.7,0,0,0-.028,2.076l.524,2.494a1.286,1.286,0,0,0,.048.167ZM21.837,35.4A4.535,4.535,0,0,0,19.4,37.435a3.443,3.443,0,0,0-.784.215V29.867a.437.437,0,0,0-.241-.39c-.971-.487-1.506-1.074-1.506-1.653,0-.633.651-1.284,1.786-1.786a12.134,12.134,0,0,1,4.764-.868,12.133,12.133,0,0,1,4.764.868c1.135.5,1.786,1.153,1.786,1.786,0,.58-.535,1.167-1.506,1.653a.437.437,0,0,0-.241.39v3.626a4.527,4.527,0,0,0-1.042-.348,5.677,5.677,0,0,0-2.283,0,4.524,4.524,0,0,0-2.892,1.969C21.948,35.208,21.892,35.3,21.837,35.4Zm8.053,3.083-.524,2.495a.439.439,0,0,1-.427.347H23.148a.439.439,0,0,1-.427-.347L22.2,38.485a3.8,3.8,0,0,1,.544-2.891A3.657,3.657,0,0,1,25.076,34a4.809,4.809,0,0,1,1.934,0,3.657,3.657,0,0,1,2.336,1.593A3.8,3.8,0,0,1,29.89,38.485Zm2.348,2.487a.927.927,0,0,1-.7.355H30.172a1.288,1.288,0,0,0,.048-.167l.524-2.495a4.7,4.7,0,0,0-.027-2.076,4.481,4.481,0,0,1,1.852,3.064A1.645,1.645,0,0,1,32.238,40.972ZM30.249,35.4c-.055-.1-.111-.193-.173-.287a4.616,4.616,0,0,0-.976-1.073V30.13a2.829,2.829,0,0,0,1.747-2.307c0-1.009-.819-1.927-2.306-2.584-.054-.024-.109-.046-.164-.069H31.91c-.125,1.255-.191,2.577-.191,3.93a33.444,33.444,0,0,0,.95,8.314A4.528,4.528,0,0,0,30.249,35.4Zm4.357,5.666a.7.7,0,0,1-.542.259h-1a2.567,2.567,0,0,0,.37-1.816,6.111,6.111,0,0,0-.266-1.04,2.7,2.7,0,0,1,1.6,1.974.75.75,0,0,1-.156.623Zm1.48.259a1,1,0,0,1-.536-.176,1.627,1.627,0,0,0,.068-.874,3.578,3.578,0,0,0-1.95-2.536,21.891,21.891,0,0,1-.539-2.3,6.33,6.33,0,0,1,3.692.187h0A.437.437,0,1,0,37.1,34.8h0l0,0-.006,0a7.2,7.2,0,0,0-4.1-.223,36.995,36.995,0,0,1-.391-5.177,5.979,5.979,0,0,1,3.791.119h0a.437.437,0,1,0,.276-.828h0l0,0-.006,0a7,7,0,0,0-4.052-.2,36.516,36.516,0,0,1,.373-4.784,6.2,6.2,0,0,1,3.851.139h0a.437.437,0,1,0,.276-.828h0l0,0-.006,0a7.275,7.275,0,0,0-3.958-.258,21.487,21.487,0,0,1,.6-2.472c.661-2.131,1.544-3.4,2.362-3.4s1.7,1.272,2.362,3.4A31.05,31.05,0,0,1,39.58,29.1a31.048,31.048,0,0,1-1.131,8.825C37.787,40.055,36.9,41.326,36.086,41.326Zm4.108-3.4c-.661,2.13-1.544,3.4-2.362,3.4h-.1a8.8,8.8,0,0,0,1.551-3.143A31.93,31.93,0,0,0,40.453,29.1a31.93,31.93,0,0,0-1.171-9.084,8.8,8.8,0,0,0-1.551-3.143h.1c.818,0,1.7,1.272,2.362,3.4A31.05,31.05,0,0,1,41.326,29.1,31.048,31.048,0,0,1,40.195,37.925Z" transform="translate(-16 -16)" fill="#fff"/>
</svg>
