<svg xmlns="http://www.w3.org/2000/svg" width="31.283" height="27.865" viewBox="0 0 31.283 27.865">
  <g id="rest" transform="translate(-4.844)">
    <g id="Group_109" data-name="Group 109" transform="translate(4.844 0)">
      <g id="Group_108" data-name="Group 108">
        <path id="Path_201" data-name="Path 201" d="M84.358,26.643a7.654,7.654,0,0,0-4.059.269,7.641,7.641,0,0,0-12.355,1.12A7.66,7.66,0,1,0,66.9,43.274l-.007-.007h.282a7.647,7.647,0,0,0,14.1-1.63,7.654,7.654,0,0,0,3.084-14.994Zm.976,13.34a6.351,6.351,0,0,1-4.36.24.655.655,0,0,0-.838.511,6.338,6.338,0,0,1-11.988,1.584.655.655,0,0,0-.589-.373h-.668a6.351,6.351,0,1,1-.408-12.7q.2-.007.408,0v.013a6.367,6.367,0,0,1,1.264.124.655.655,0,0,0,.714-.34,6.338,6.338,0,0,1,10.672-.936.655.655,0,0,0,.779.2,6.351,6.351,0,1,1,5.015,11.67Z" transform="translate(-59.189 -24.275)" fill="#fff"/>
      </g>
    </g>
    <g id="Group_111" data-name="Group 111" transform="translate(5.729 20.453)">
      <g id="Group_110" data-name="Group 110">
        <path id="Path_202" data-name="Path 202" d="M77.413,277.862a3.707,3.707,0,1,0,0,.026C77.413,277.879,77.413,277.87,77.413,277.862Zm-3.686,2.429h-.02a2.405,2.405,0,1,1,.02,0Z" transform="translate(-70.001 -274.182)" fill="#fff"/>
      </g>
    </g>
    <g id="Group_115" data-name="Group 115" transform="translate(11.745 8.26)">
      <g id="Group_114" data-name="Group 114">
        <path id="Path_204" data-name="Path 204" d="M148.41,129.528a.687.687,0,0,0-.485-.151h-2.619l2.468-2.756.229-.255.151-.177a.813.813,0,0,0,.1-.19.655.655,0,0,0,.046-.223.471.471,0,0,0-.229-.452,1.4,1.4,0,0,0-.655-.124h-3.123a.655.655,0,0,0-.426.157.465.465,0,0,0-.164.373q0,.314.21.393a2,2,0,0,0,.655.072h1.918q-.124.17-.327.412l-.517.589-.655.746-.792.864q-.419.471-.55.655a.576.576,0,0,0-.131.347.583.583,0,0,0,.19.458.845.845,0,0,0,.57.164h3.653a.714.714,0,0,0,.485-.144.471.471,0,0,0,.164-.373A.5.5,0,0,0,148.41,129.528Z" transform="translate(-143.512 -125.198)" fill="#fff"/>
      </g>
    </g>
    <g id="Group_117" data-name="Group 117" transform="translate(18.241 12.306)">
      <g id="Group_116" data-name="Group 116">
        <path id="Path_205" data-name="Path 205" d="M226.8,178.093a.55.55,0,0,0-.386-.118h-2.108l1.964-2.2.183-.2.118-.144a.655.655,0,0,0,.079-.151.5.5,0,0,0,.033-.177.373.373,0,0,0-.183-.36,1.114,1.114,0,0,0-.524-.1h-2.462a.543.543,0,0,0-.367.111.373.373,0,0,0-.131.295q0,.255.17.314a1.61,1.61,0,0,0,.5.059h1.6q-.1.138-.262.334l-.412.471-.537.6-.655.714q-.334.373-.439.517a.459.459,0,0,0-.1.275.465.465,0,0,0,.151.367.655.655,0,0,0,.478.111h2.914a.57.57,0,0,0,.386-.111.38.38,0,0,0,.131-.295A.4.4,0,0,0,226.8,178.093Z" transform="translate(-222.873 -174.64)" fill="#fff"/>
      </g>
    </g>
    <g id="Group_119" data-name="Group 119" transform="translate(23.858 7.906)">
      <g id="Group_118" data-name="Group 118">
        <path id="Path_206" data-name="Path 206" d="M296.371,125.2a.687.687,0,0,0-.484-.151h-2.619l2.468-2.756.229-.255.151-.177a.811.811,0,0,0,.1-.19.656.656,0,0,0,.046-.223.471.471,0,0,0-.229-.452,1.4,1.4,0,0,0-.655-.124h-3.123a.655.655,0,0,0-.458.137.465.465,0,0,0-.164.373q0,.314.21.393a2,2,0,0,0,.655.072h2q-.124.17-.327.412l-.517.589L293,123.6l-.805.89q-.419.471-.55.655a.576.576,0,0,0-.131.347.583.583,0,0,0,.19.458.844.844,0,0,0,.53.157h3.653a.714.714,0,0,0,.484-.144.471.471,0,0,0,.164-.373A.5.5,0,0,0,296.371,125.2Z" transform="translate(-291.512 -120.875)" fill="#fff"/>
      </g>
    </g>
  </g>
</svg>
