<svg id="food-tray" xmlns="http://www.w3.org/2000/svg" width="34.724" height="30.51" viewBox="0 0 34.724 30.51">
  <path id="Path_183" data-name="Path 183" d="M40.514,66.752H39.056a.5.5,0,1,1,0-.992h1.458a.5.5,0,1,1,0,.992Z" transform="translate(-20.543 -36.242)" fill="#fff"/>
  <path id="Path_184" data-name="Path 184" d="M33.184,63.416h-2.57a.5.5,0,1,1,0-.992h2.57a2.792,2.792,0,0,0,2.744-2.292H3.276A2.792,2.792,0,0,0,6.02,62.424H17.281a.5.5,0,1,1,0,.992H6.02a3.784,3.784,0,0,1-3.78-3.78.5.5,0,0,1,.5-.5H36.468a.5.5,0,0,1,.5.5A3.784,3.784,0,0,1,33.184,63.416Z" transform="translate(-2.24 -32.906)" fill="#fff"/>
  <path id="Path_185" data-name="Path 185" d="M50.454,66.752H49a.5.5,0,1,1,0-.992h1.458a.5.5,0,1,1,0,.992Z" transform="translate(-25.552 -36.242)" fill="#fff"/>
  <path id="Path_186" data-name="Path 186" d="M36.513,46.018H8.6a.5.5,0,0,1-.5-.5A14.406,14.406,0,0,1,22.489,31.133h.131A14.406,14.406,0,0,1,37.009,45.522a.5.5,0,0,1-.5.5ZM9.1,45.026H36.008a13.412,13.412,0,0,0-13.388-12.9h-.131A13.413,13.413,0,0,0,9.1,45.026Z" transform="translate(-5.193 -18.792)" fill="#fff"/>
  <path id="Path_187" data-name="Path 187" d="M32.535,29.322a.5.5,0,0,1-.471-.341l-.8-2.421a.5.5,0,0,1,.276-.612,6.589,6.589,0,0,1,5.349,0,.5.5,0,0,1,.277.612l-.8,2.421a.5.5,0,1,1-.943-.311l.651-1.973a5.451,5.451,0,0,0-3.723,0l.651,1.973a.5.5,0,0,1-.315.627.488.488,0,0,1-.156.025Z" transform="translate(-16.854 -15.894)" fill="#fff"/>
  <path id="Path_188" data-name="Path 188" d="M49.949,20.066a.5.5,0,0,1-.332-.865,1.375,1.375,0,0,0,.608-1.1c0-.54-.262-.8-.727-1.208a2.329,2.329,0,0,1,0-3.907,3.373,3.373,0,0,0,.512-.522.5.5,0,0,1,.807.577,4.174,4.174,0,0,1-.663.687c-.464.412-.727.671-.727,1.214s.262.8.727,1.208A2.46,2.46,0,0,1,51.216,18.1a2.331,2.331,0,0,1-.937,1.838.493.493,0,0,1-.33.126Z" transform="translate(-25.521 -9.279)" fill="#fff"/>
  <path id="Path_189" data-name="Path 189" d="M21.946,20.066a.5.5,0,0,1-.332-.865,1.374,1.374,0,0,0,.608-1.1c0-.54-.262-.8-.727-1.208a2.329,2.329,0,0,1,0-3.907,3.373,3.373,0,0,0,.512-.522.5.5,0,0,1,.807.577,4.174,4.174,0,0,1-.661.687c-.464.412-.727.671-.727,1.214s.262.8.727,1.208A2.46,2.46,0,0,1,23.215,18.1a2.331,2.331,0,0,1-.937,1.838A.493.493,0,0,1,21.946,20.066Z" transform="translate(-11.409 -9.28)" fill="#fff"/>
  <path id="Path_190" data-name="Path 190" d="M35.948,14.066a.5.5,0,0,1-.332-.865,1.375,1.375,0,0,0,.608-1.1c0-.54-.263-.8-.727-1.208a2.458,2.458,0,0,1-1.062-1.951A2.469,2.469,0,0,1,35.5,6.985a3.373,3.373,0,0,0,.512-.522.5.5,0,0,1,.807.577,4.134,4.134,0,0,1-.662.687c-.464.412-.727.671-.727,1.214s.262.8.726,1.208A2.46,2.46,0,0,1,37.216,12.1a2.331,2.331,0,0,1-.937,1.838.493.493,0,0,1-.331.126Z" transform="translate(-18.465 -6.256)" fill="#fff"/>
</svg>
