<svg xmlns="http://www.w3.org/2000/svg" width="25.578" height="25.577" viewBox="0 0 25.578 25.577">
  <g id="Kaydet_İcon" data-name="Kaydet İcon" transform="translate(0.001 -0.003)">
    <path id="Path_217" data-name="Path 217" d="M127.749,7.147h6.944V0H127V6.4A.75.75,0,0,0,127.749,7.147Z" transform="translate(-120.657 0)" fill="#65539e"/>
    <path id="Path_218" data-name="Path 218" d="M312.7,6.4V0H311V7.147h.949A.75.75,0,0,0,312.7,6.4Z" transform="translate(-295.465 0)" fill="#65539e"/>
    <path id="Path_219" data-name="Path 219" d="M127,359.046h10.89V351H127Z" transform="translate(-120.657 -333.466)" fill="#65539e"/>
    <path id="Path_220" data-name="Path 220" d="M25.573,6.324a.751.751,0,0,0-.166-.4c-.037-.046.344.339-5.7-5.7a.755.755,0,0,0-.53-.22h-.449V6.4a2.251,2.251,0,0,1-2.248,2.248H7.093A2.251,2.251,0,0,1,4.845,6.4V0h-2.6A2.251,2.251,0,0,0,0,2.251V23.332A2.251,2.251,0,0,0,2.247,25.58h2.6V15.09a2.251,2.251,0,0,1,2.248-2.248h9.392a2.251,2.251,0,0,1,2.248,2.248V25.58h4.6a2.251,2.251,0,0,0,2.248-2.248c0-18.193,0-16.951,0-17.008Z" transform="translate(0 0)" fill="#65539e"/>
    <path id="Path_221" data-name="Path 221" d="M137.141,287h-9.392a.75.75,0,0,0-.749.749v.949h10.89v-.949A.75.75,0,0,0,137.141,287Z" transform="translate(-120.657 -272.663)" fill="#65539e"/>
  </g>
</svg>
