<svg id="love" xmlns="http://www.w3.org/2000/svg" width="38.714" height="38.714" viewBox="0 0 38.714 38.714">
  <g id="Group_99" data-name="Group 99" transform="translate(0 0)">
    <g id="Group_98" data-name="Group 98">
      <path id="Path_191" data-name="Path 191" d="M6.814,67.706a1.185,1.185,0,0,0,.566-.145,2.439,2.439,0,0,0,1.036-1.086h.031a1.182,1.182,0,0,0,.564-.143,2.438,2.438,0,0,0,.979-.977,1.178,1.178,0,0,0,.453-.138,2.453,2.453,0,0,0,.986-3.326L9.991,59.243a15.447,15.447,0,0,0,1.777-3.825,17.373,17.373,0,0,0,.585-2.9,3.507,3.507,0,0,0-1.01-2.9L4.909,43.177a.567.567,0,0,0-.8.8l6.433,6.433a2.379,2.379,0,0,1,.686,1.97A16.234,16.234,0,0,1,10.68,55.1a13.967,13.967,0,0,1-1.256,2.9l-.68-1.253a4.764,4.764,0,0,0,1.717-3.682.567.567,0,0,0-.555-.579H9.894a.567.567,0,0,0-.567.555A3.688,3.688,0,0,1,8.139,55.78c-.065.04-.287.158-.425.23a.567.567,0,0,0-.237.774l1.189,2.192a1.546,1.546,0,0,1-.621,2.094.13.13,0,0,1-.171-.045L5.53,57.265l-.123-2.709a1.6,1.6,0,0,1,.407-1.145L7,52.078l.977-.53a.567.567,0,1,0-.541-1l-1.063.577a.568.568,0,0,0-.153.121l-.207.232L.939,47.09a.567.567,0,1,0-.742.858l5.064,4.38-.293.328a2.73,2.73,0,0,0-.694,1.952l.067,1.477c0,.011-.633,2.129-.633,2.129a.567.567,0,1,0,1.087.322l.061-.207,1.2,1.928-.337,1.137a.567.567,0,0,0,.045.432l1.6,2.95a1.319,1.319,0,0,1-.53,1.788.047.047,0,0,1-.062-.018L3.9,61.563l.137-.463a.567.567,0,1,0-1.087-.322l-.207.7a.567.567,0,0,0,.053.445l3,5.194a1.174,1.174,0,0,0,1.019.592Zm3.723-4.269a1.314,1.314,0,0,1-.258.477A2.439,2.439,0,0,0,10,63.007l-.772-1.422A2.667,2.667,0,0,0,9.655,61l.777,1.431A1.31,1.31,0,0,1,10.537,63.437ZM7.043,61.8a1.261,1.261,0,0,0,1.219.392L9,63.548a1.32,1.32,0,0,1-.345,1.665,2.438,2.438,0,0,0-.289-.978Z" transform="translate(-0.001 -39.759)" fill="#fff"/>
      <path id="Path_192" data-name="Path 192" d="M358.193,155.841l1.6-5.373a.567.567,0,0,0-.053-.445l-3-5.194a1.175,1.175,0,0,0-1.586-.447,2.435,2.435,0,0,0-1.037,1.086,1.177,1.177,0,0,0-.593.142,2.438,2.438,0,0,0-.98.977,1.178,1.178,0,0,0-.452.137,2.453,2.453,0,0,0-.986,3.326l1.438,2.649a15.381,15.381,0,0,0-1.777,3.825,17.369,17.369,0,0,0-.585,2.9,3.507,3.507,0,0,0,1.01,2.9l6.294,6.294a.567.567,0,1,0,.8-.8l-6.294-6.294a2.378,2.378,0,0,1-.686-1.969,16.233,16.233,0,0,1,.546-2.715,14.087,14.087,0,0,1,1.257-2.894l.679,1.252a4.764,4.764,0,0,0-1.717,3.682.567.567,0,0,0,1.134.024,3.688,3.688,0,0,1,1.188-2.748c.065-.04.288-.158.425-.23a.567.567,0,0,0,.237-.774l-1.19-2.192a1.546,1.546,0,0,1,.621-2.094.13.13,0,0,1,.172.045L357,154.678l.123,2.709a1.6,1.6,0,0,1-.407,1.145l-1.19,1.333-.977.53a.567.567,0,1,0,.541,1l1.063-.577a.569.569,0,0,0,.152-.121l.21-.236,4.937,4.257a.567.567,0,0,0,.741-.859l-4.922-4.244.29-.325a2.729,2.729,0,0,0,.694-1.952Zm-6.2-7.335a1.314,1.314,0,0,1,.258-.477,2.439,2.439,0,0,0,.283.907l.772,1.422a2.666,2.666,0,0,0-.431.582l-.777-1.431A1.31,1.31,0,0,1,352,148.506Zm2.276,1.25-.738-1.36a1.32,1.32,0,0,1,.343-1.664,2.446,2.446,0,0,0,.29.977l1.325,2.441A1.267,1.267,0,0,0,354.273,149.756Zm2.2,1.93.337-1.137a.567.567,0,0,0-.045-.432l-1.6-2.95a1.319,1.319,0,0,1,.53-1.788.047.047,0,0,1,.062.018l2.879,4.983-.959,3.235Z" transform="translate(-323.681 -133.331)" fill="#fff"/>
      <path id="Path_193" data-name="Path 193" d="M56.124,356.37l5.353,1.587a.567.567,0,0,0,.445-.053l5.194-3a1.174,1.174,0,0,0,.447-1.586,2.439,2.439,0,0,0-1.086-1.036,1.174,1.174,0,0,0-.142-.595,2.438,2.438,0,0,0-.977-.979,1.176,1.176,0,0,0-.138-.453,2.453,2.453,0,0,0-3.326-.986l-2.649,1.438a15.63,15.63,0,0,0-3.824-1.777,17.38,17.38,0,0,0-2.9-.585,3.507,3.507,0,0,0-2.9,1.01l-6.433,6.433a.567.567,0,0,0,.8.8l6.433-6.433a2.379,2.379,0,0,1,1.969-.686,16.25,16.25,0,0,1,2.715.546,14.08,14.08,0,0,1,2.895,1.257l-1.252.679a4.764,4.764,0,0,0-3.682-1.717h-.012a.567.567,0,0,0-.012,1.134,3.688,3.688,0,0,1,2.748,1.188c.04.065.158.288.23.425a.567.567,0,0,0,.774.237l2.192-1.189a1.544,1.544,0,0,1,2.093.62.129.129,0,0,1-.045.171l-3.758,2.346-2.71.123a1.6,1.6,0,0,1-1.145-.407l-1.333-1.19-.53-.977a.567.567,0,0,0-1,.541l.577,1.063a.568.568,0,0,0,.121.153l.232.207-4.391,5.078a.567.567,0,0,0,.858.742l4.38-5.064.328.293a2.727,2.727,0,0,0,1.825.7l.127,0Zm6.065-3.934,1.36-.738a1.32,1.32,0,0,1,1.665.345,2.438,2.438,0,0,0-.978.289l-2.44,1.325A1.266,1.266,0,0,0,62.189,352.437Zm.246-2.17a1.317,1.317,0,0,1,1.481.153,2.44,2.44,0,0,0-.907.283l-1.421.771a2.646,2.646,0,0,0-.581-.431Zm4.113,3.655L61.566,356.8l-3.235-.959,1.928-1.2,1.137.337a.567.567,0,0,0,.432-.045l2.95-1.6a1.321,1.321,0,0,1,1.788.53.046.046,0,0,1-.018.063Z" transform="translate(-39.761 -321.983)" fill="#fff"/>
      <path id="Path_194" data-name="Path 194" d="M321.648,59.256c-.467-.055-.934-.129-1.387-.219a.567.567,0,1,0-.222,1.112c.483.1.98.175,1.477.233a3.569,3.569,0,0,0,.416.024,3.505,3.505,0,0,0,2.488-1.035l6.294-6.294a.567.567,0,1,0-.8-.8l-6.294,6.294A2.378,2.378,0,0,1,321.648,59.256Z" transform="translate(-295.418 -48.169)" fill="#fff"/>
      <path id="Path_195" data-name="Path 195" d="M145.47,8.275a1.18,1.18,0,0,0,.14.594,2.437,2.437,0,0,0,.977.979,1.175,1.175,0,0,0,.138.453,2.437,2.437,0,0,0,1.459,1.182,2.438,2.438,0,0,0,1.867-.2L152.7,9.85a16.022,16.022,0,0,0,2.588,1.342.567.567,0,0,0,.426-1.051,14.885,14.885,0,0,1-1.762-.858L155.2,8.6a4.764,4.764,0,0,0,3.682,1.717h.012a.567.567,0,0,0,.012-1.134A3.688,3.688,0,0,1,156.163,8c-.04-.065-.158-.287-.23-.425a.567.567,0,0,0-.774-.237l-2.192,1.189a1.544,1.544,0,0,1-2.093-.62.129.129,0,0,1,.045-.171l3.758-2.346,2.71-.123a1.6,1.6,0,0,1,1.145.407l1.333,1.19.53.977a.567.567,0,0,0,1-.541l-.577-1.063a.568.568,0,0,0-.121-.153l-.235-.21L164.715.935a.567.567,0,1,0-.859-.741l-4.244,4.922-.325-.29a2.73,2.73,0,0,0-1.951-.694l-1.472.067-5.4-1.6a.567.567,0,0,0-.445.053l-5.194,3a1.174,1.174,0,0,0-.447,1.586,2.439,2.439,0,0,0,1.087,1.036Zm4.286-.155-1.36.738a1.32,1.32,0,0,1-1.665-.345,2.438,2.438,0,0,0,.978-.289l2.44-1.325A1.267,1.267,0,0,0,149.756,8.12Zm-.246,2.17a1.317,1.317,0,0,1-1.481-.153,2.438,2.438,0,0,0,.908-.282l1.421-.771a2.646,2.646,0,0,0,.582.431ZM145.4,6.635l4.983-2.879,3.235.959-1.928,1.2-1.137-.337a.567.567,0,0,0-.432.045l-2.95,1.6a1.319,1.319,0,0,1-1.788-.53.046.046,0,0,1,.018-.063Z" transform="translate(-133.331 0.002)" fill="#fff"/>
      <path id="Path_196" data-name="Path 196" d="M183.611,204.992a.035.035,0,0,1-.05,0l-2.225-2.226a.567.567,0,0,0-.8.8l2.225,2.226a1.171,1.171,0,0,0,1.654,0l4.013-4.013a3.705,3.705,0,0,0-4.84-5.586,3.705,3.705,0,0,0-4.961,5.458.567.567,0,0,0,.84-.762,2.571,2.571,0,0,1,3.721-3.547.567.567,0,0,0,.8,0,2.571,2.571,0,0,1,3.636,3.635Z" transform="translate(-164.229 -180.682)" fill="#fff"/>
    </g>
  </g>
</svg>
