<svg xmlns="http://www.w3.org/2000/svg" width="20.271" height="27.022" viewBox="0 0 20.271 27.022">
  <g id="clipboard" transform="translate(-63.958 0)">
    <g id="Group_55" data-name="Group 55" transform="translate(72.439 6.2)">
      <g id="Group_54" data-name="Group 54">
        <g id="Group_47" data-name="Group 47">
          <g id="Group_45" data-name="Group 45" transform="translate(0 2.032)">
            <path id="Path_56" data-name="Path 56" d="M229.351,156.767h-4.3a.4.4,0,1,1,0-.792h4.3a.4.4,0,1,1,0,.792Z" transform="translate(-224.657 -155.975)" fill="#fdfdfd"/>
          </g>
          <g id="Group_46" data-name="Group 46">
            <path id="Path_57" data-name="Path 57" d="M233.65,118.27h-8.6a.4.4,0,1,1,0-.792h8.6a.4.4,0,1,1,0,.792Z" transform="translate(-224.657 -117.478)" fill="#fdfdfd"/>
          </g>
        </g>
        <g id="Group_50" data-name="Group 50" transform="translate(0 6.633)">
          <g id="Group_48" data-name="Group 48" transform="translate(0 2.032)">
            <path id="Path_58" data-name="Path 58" d="M229.351,282.454h-4.3a.4.4,0,1,1,0-.792h4.3a.4.4,0,1,1,0,.792Z" transform="translate(-224.657 -281.662)" fill="#fdfdfd"/>
          </g>
          <g id="Group_49" data-name="Group 49">
            <path id="Path_59" data-name="Path 59" d="M233.65,243.956h-8.6a.4.4,0,1,1,0-.792h8.6a.4.4,0,1,1,0,.792Z" transform="translate(-224.657 -243.164)" fill="#fdfdfd"/>
          </g>
        </g>
        <g id="Group_53" data-name="Group 53" transform="translate(0 13.267)">
          <g id="Group_51" data-name="Group 51" transform="translate(0 2.032)">
            <path id="Path_60" data-name="Path 60" d="M229.351,408.141h-4.3a.4.4,0,1,1,0-.792h4.3a.4.4,0,1,1,0,.792Z" transform="translate(-224.657 -407.349)" fill="#fdfdfd"/>
          </g>
          <g id="Group_52" data-name="Group 52" transform="translate(0 0)">
            <path id="Path_61" data-name="Path 61" d="M233.65,369.643h-8.6a.4.4,0,1,1,0-.792h8.6a.4.4,0,1,1,0,.792Z" transform="translate(-224.657 -368.851)" fill="#fdfdfd"/>
          </g>
        </g>
      </g>
    </g>
    <g id="Group_56" data-name="Group 56" transform="translate(69.491 0)">
      <path id="Path_62" data-name="Path 62" d="M176.815,3.729H169.97a1.181,1.181,0,0,1-1.18-1.18V1.18A1.181,1.181,0,0,1,169.97,0h6.845A1.181,1.181,0,0,1,178,1.18V2.549a1.181,1.181,0,0,1-1.18,1.18ZM169.97.792a.389.389,0,0,0-.388.388V2.549a.389.389,0,0,0,.388.388h6.845a.389.389,0,0,0,.388-.388V1.18a.389.389,0,0,0-.388-.388Z" transform="translate(-168.79 0)" fill="#fdfdfd"/>
    </g>
    <g id="Group_60" data-name="Group 60" transform="translate(66.359 5.67)">
      <g id="Group_57" data-name="Group 57">
        <path id="Path_63" data-name="Path 63" d="M112.27,111.309h-1.759a1.064,1.064,0,0,1-1.063-1.063v-1.759a1.064,1.064,0,0,1,1.063-1.063h1.759a1.064,1.064,0,0,1,1.063,1.063v1.759A1.064,1.064,0,0,1,112.27,111.309Zm-1.759-3.093a.271.271,0,0,0-.271.271v1.759a.271.271,0,0,0,.271.271h1.759a.271.271,0,0,0,.271-.271v-1.759a.271.271,0,0,0-.271-.271Z" transform="translate(-109.448 -107.424)" fill="#fdfdfd"/>
      </g>
      <g id="Group_58" data-name="Group 58" transform="translate(0 6.633)">
        <path id="Path_64" data-name="Path 64" d="M112.27,236.995h-1.759a1.064,1.064,0,0,1-1.063-1.063v-1.759a1.064,1.064,0,0,1,1.063-1.063h1.759a1.064,1.064,0,0,1,1.063,1.063v1.759A1.064,1.064,0,0,1,112.27,236.995Zm-1.759-3.093a.271.271,0,0,0-.271.271v1.759a.271.271,0,0,0,.271.271h1.759a.271.271,0,0,0,.271-.271v-1.759a.271.271,0,0,0-.271-.271Z" transform="translate(-109.448 -233.11)" fill="#fdfdfd"/>
      </g>
      <g id="Group_59" data-name="Group 59" transform="translate(0 13.267)">
        <path id="Path_65" data-name="Path 65" d="M112.27,362.681h-1.759a1.064,1.064,0,0,1-1.063-1.063v-1.759a1.064,1.064,0,0,1,1.063-1.063h1.759a1.064,1.064,0,0,1,1.063,1.063v1.759A1.064,1.064,0,0,1,112.27,362.681Zm-1.759-3.093a.271.271,0,0,0-.271.271v1.759a.271.271,0,0,0,.271.271h1.759a.271.271,0,0,0,.271-.271v-1.759a.271.271,0,0,0-.271-.271Z" transform="translate(-109.448 -358.796)" fill="#fdfdfd"/>
      </g>
    </g>
    <g id="Group_61" data-name="Group 61" transform="translate(63.958 1.469)">
      <path id="Path_66" data-name="Path 66" d="M82.514,53.38H65.673a1.717,1.717,0,0,1-1.715-1.715V29.541a1.717,1.717,0,0,1,1.715-1.715h2.372a.4.4,0,1,1,0,.792H65.673a.924.924,0,0,0-.923.923V51.665a.924.924,0,0,0,.923.923H82.514a.924.924,0,0,0,.923-.923V29.541a.924.924,0,0,0-.923-.923H80.142a.4.4,0,0,1,0-.792h2.372a1.717,1.717,0,0,1,1.715,1.715V51.665A1.717,1.717,0,0,1,82.514,53.38Z" transform="translate(-63.958 -27.826)" fill="#fdfdfd"/>
    </g>
  </g>
</svg>
