<svg xmlns="http://www.w3.org/2000/svg" width="20.126" height="20.266" viewBox="0 0 20.126 20.266">
  <g id="list" transform="translate(-1.045)">
    <g id="Group_64" data-name="Group 64" transform="translate(1.045 0)">
      <g id="Group_63" data-name="Group 63" transform="translate(0 0)">
        <path id="Path_73" data-name="Path 73" d="M111.148,141.061H98.919a.7.7,0,0,0,0,1.4h12.229a.7.7,0,0,0,0-1.4Z" transform="translate(-91.721 -131.627)" fill="#65539e"/>
        <circle id="Ellipse_51" data-name="Ellipse 51" cx="1.747" cy="1.747" r="1.747" transform="translate(0 8.386)" fill="#65539e"/>
        <path id="Path_74" data-name="Path 74" d="M98.919,17.071h12.229a.7.7,0,0,0,0-1.4H98.919a.7.7,0,1,0,0,1.4Z" transform="translate(-91.721 -14.625)" fill="#65539e"/>
        <circle id="Ellipse_52" data-name="Ellipse 52" cx="1.747" cy="1.747" r="1.747" fill="#65539e"/>
        <path id="Path_75" data-name="Path 75" d="M111.148,266.449H98.919a.7.7,0,0,0,0,1.4h12.229a.7.7,0,0,0,0-1.4Z" transform="translate(-91.721 -248.629)" fill="#65539e"/>
        <circle id="Ellipse_53" data-name="Ellipse 53" cx="1.747" cy="1.747" r="1.747" transform="translate(0 16.772)" fill="#65539e"/>
      </g>
    </g>
  </g>
</svg>
