<svg xmlns="http://www.w3.org/2000/svg" width="30.612" height="27.008" viewBox="0 0 30.612 27.008">
  <g id="spoon-and-fork-crossed" transform="translate(0 -3.002)">
    <g id="Group_120" data-name="Group 120" transform="translate(0 3.002)">
      <path id="Path_214" data-name="Path 214" d="M33.672,41.065c.322.322,1.269-.1,1.591-.424l.531-.531c.322-.322.747-1.27.424-1.592L28.24,30.947l-2.086,2.2Z" transform="translate(-10.454 -14.172)" fill="#65539e"/>
      <path id="Path_215" data-name="Path 215" d="M9.988,13.072c1.038-1.805.489-3.993-1.145-5.628C6.911,5.514,2.74,3.625.809,5.556S.767,11.659,2.7,13.59c1.6,1.6,3.74,2.163,5.526,1.2L12,18.777l2-1.9Z" transform="translate(0 -3.7)" fill="#65539e"/>
      <path id="Path_216" data-name="Path 216" d="M22.39,12.319,6.554,27.348c-.322.322.1,1.27.424,1.592l.531.531a2.17,2.17,0,0,0,1.249.539A.476.476,0,0,0,9.1,29.9L24.186,14a3.706,3.706,0,0,0,1.309.364,4.918,4.918,0,0,0,3.855-1.586c3.8-3.8,4.486-4.64,3.318-6.105l-4.489,4.3a.552.552,0,0,1-.384.161A.464.464,0,0,1,27.462,11l-.12-.119a.467.467,0,0,1-.136-.333.56.56,0,0,1,.166-.388L31.447,5.38l-.291-.291c-.175-.175-.337-.338-.491-.493l-4.8,4.094a.537.537,0,0,1-.37.149.464.464,0,0,1-.333-.136l-.12-.119a.467.467,0,0,1-.136-.333.56.56,0,0,1,.166-.388l4.281-4.467c-1.381-1-2.22-.167-5.889,3.5a4.79,4.79,0,0,0-1.536,4.2A3.8,3.8,0,0,0,22.39,12.319Z" transform="translate(-2.574 -3.002)" fill="#65539e"/>
    </g>
  </g>
</svg>
