<svg xmlns="http://www.w3.org/2000/svg" width="28.559" height="28.563" viewBox="0 0 28.559 28.563">
  <g id="İlaç_İcon" data-name="İlaç İcon" transform="translate(0 -0.23)">
    <g id="Group_262" data-name="Group 262" transform="translate(10.059 0.23)">
      <g id="Group_261" data-name="Group 261" transform="translate(0 0)">
        <path id="Path_364" data-name="Path 364" d="M129.56,2.249a6.886,6.886,0,0,0-9.741,0l-6.743,6.743,9.75,9.75,6.734-6.752A6.894,6.894,0,0,0,129.56,2.249Zm-6.912,3.986-3.069,3.025-.009.009A.887.887,0,1,1,118.333,8l3.078-3.025.009-.009a.884.884,0,1,1,1.228,1.272Z" transform="translate(-113.075 -0.23)" fill="#65539e"/>
      </g>
    </g>
    <g id="Group_264" data-name="Group 264" transform="translate(0 10.247)">
      <g id="Group_263" data-name="Group 263" transform="translate(0)">
        <path id="Path_365" data-name="Path 365" d="M8.8,112.818l-6.788,6.8a6.907,6.907,0,0,0,9.795,9.741l6.752-6.779Z" transform="translate(0 -112.818)" fill="#65539e"/>
      </g>
    </g>
  </g>
</svg>
