<svg id="edit_1_" data-name="edit(1)" xmlns="http://www.w3.org/2000/svg" width="34.06" height="34.062" viewBox="0 0 34.06 34.062">
  <path id="Path_207" data-name="Path 207" d="M12.1,29.284a.716.716,0,0,1-.5-.207.709.709,0,0,1-.194-.64l1-5.017a.7.7,0,0,1,.194-.363L23.644,12.018a2.133,2.133,0,0,1,3.01,0l2.007,2.007a2.13,2.13,0,0,1,0,3.01L17.622,28.073a.706.706,0,0,1-.363.194l-5.017,1A.753.753,0,0,1,12.1,29.284Zm1.658-5.377-.752,3.762,3.762-.752L27.659,16.03a.71.71,0,0,0,0-1L25.652,13.02a.71.71,0,0,0-1,0Zm3.359,3.664h.014Z" transform="translate(4.776 4.778)" fill="#65539e"/>
  <path id="Path_208" data-name="Path 208" d="M13.483,28.546H3.548A3.551,3.551,0,0,1,0,25V6.548A3.551,3.551,0,0,1,3.548,3H6.387a.71.71,0,0,1,0,1.419H3.548A2.131,2.131,0,0,0,1.419,6.548V25a2.131,2.131,0,0,0,2.129,2.129h9.935a.71.71,0,1,1,0,1.419Z" transform="translate(0 1.258)" fill="#65539e"/>
  <path id="Path_209" data-name="Path 209" d="M18.387,15.773a.71.71,0,0,1-.71-.71V6.548a2.131,2.131,0,0,0-2.129-2.129H12.71A.71.71,0,1,1,12.71,3h2.838A3.551,3.551,0,0,1,19.1,6.548v8.515A.71.71,0,0,1,18.387,15.773Z" transform="translate(5.031 1.258)" fill="#65539e"/>
  <path id="Path_210" data-name="Path 210" d="M14.644,8.515H6.129A2.131,2.131,0,0,1,4,6.387V3.548a.71.71,0,0,1,.71-.71h2.2a3.549,3.549,0,0,1,6.954,0h2.2a.71.71,0,0,1,.71.71V6.387A2.131,2.131,0,0,1,14.644,8.515ZM5.419,4.258V6.387a.712.712,0,0,0,.71.71h8.515a.712.712,0,0,0,.71-.71V4.258H13.225a.71.71,0,0,1-.71-.71,2.129,2.129,0,0,0-4.258,0,.71.71,0,0,1-.71.71Z" transform="translate(1.677)" fill="#65539e"/>
  <path id="Path_211" data-name="Path 211" d="M17.9,9.419H3.71A.71.71,0,1,1,3.71,8H17.9a.71.71,0,1,1,0,1.419Z" transform="translate(1.258 3.354)" fill="#65539e"/>
  <path id="Path_212" data-name="Path 212" d="M17.9,12.419H3.71A.71.71,0,1,1,3.71,11H17.9a.71.71,0,1,1,0,1.419Z" transform="translate(1.258 4.612)" fill="#65539e"/>
  <path id="Path_213" data-name="Path 213" d="M17.9,15.419H3.71A.71.71,0,0,1,3.71,14H17.9a.71.71,0,0,1,0,1.419Z" transform="translate(1.258 5.869)" fill="#65539e"/>
</svg>
