<svg xmlns="http://www.w3.org/2000/svg" width="65.101" height="65.101" viewBox="0 0 65.101 65.101">
  <path id="hello" d="M44.072,23.769a7.442,7.442,0,0,0-5.284,2.183c-4.537,5.261-4.237,4.916-4.267,4.946a2.271,2.271,0,0,1-3.879-1.608,42.056,42.056,0,0,1,.025-4.266l5.012-18.74a2.7,2.7,0,1,0-5.215-1.4c0,.009.108-.378-5.249,18.35a.743.743,0,0,1-1.456-.2V2.717a2.7,2.7,0,1,0-5.4,0V22.433a.742.742,0,0,1-1.459.191L12.389,5.759a2.7,2.7,0,1,0-5.215,1.4l4.625,17.3a.743.743,0,0,1-1.361.562L4.326,14.41A2.319,2.319,0,1,0,.313,16.735l4.293,7.45A19.973,19.973,0,0,1,7.268,34.14a11.9,11.9,0,0,0,11.878,11.9h2.711a12.927,12.927,0,0,0,9.2-3.817L45.409,27.177a2.032,2.032,0,0,0,.622-1.338A1.963,1.963,0,0,0,44.072,23.769ZM29.2,31.432a10.78,10.78,0,0,0-9.32,10.659.742.742,0,0,1-1.485,0A12.269,12.269,0,0,1,29,29.961a.742.742,0,0,1,.2,1.472Z" transform="translate(-0.008 32.543) rotate(-45)" fill="#fff"/>
</svg>
