<svg xmlns="http://www.w3.org/2000/svg" width="15.068" height="21.914" viewBox="0 0 15.068 21.914">
  <g id="pin" transform="translate(-79.968 0.001)">
    <path id="Path_272" data-name="Path 272" d="M93.989,3.752A7.436,7.436,0,0,0,87.67,0c-.112,0-.225,0-.337,0a7.436,7.436,0,0,0-6.319,3.751,7.629,7.629,0,0,0-.1,7.538l5.434,9.946.007.013a1.321,1.321,0,0,0,2.291,0l.007-.013,5.434-9.946a7.629,7.629,0,0,0-.1-7.538ZM87.5,9.929a3.082,3.082,0,1,1,3.082-3.082A3.085,3.085,0,0,1,87.5,9.929Z" transform="translate(0 0)" fill="#fff"/>
  </g>
</svg>
