<svg xmlns="http://www.w3.org/2000/svg" width="22.076" height="23.207" viewBox="0 0 22.076 23.207">
  <g id="paper-clip" transform="translate(-11.486 23.207) rotate(-90)">
    <g id="Group_80" data-name="Group 80" transform="translate(0 11.486)">
      <path id="Path_126" data-name="Path 126" d="M21.24,13.352a6.542,6.542,0,0,0-9.152,0L1.423,24.018a5,5,0,0,0,7.066,7.066l9.657-9.657A3.215,3.215,0,0,0,13.6,16.88L4.362,26.117A.84.84,0,0,0,5.549,27.3l9.237-9.237a1.536,1.536,0,0,1,2.172,2.172L7.3,29.9A3.317,3.317,0,0,1,2.61,25.205L13.275,14.54a4.865,4.865,0,1,1,6.882,6.879L9.492,32.084a.84.84,0,1,0,1.184,1.184L21.341,22.6A6.542,6.542,0,0,0,21.24,13.352Z" transform="translate(0 -11.486)" fill="#ef9cc3"/>
    </g>
  </g>
</svg>
