<svg xmlns="http://www.w3.org/2000/svg" width="28.343" height="28.348" viewBox="0 0 28.343 28.348">
  <g id="paper-plane" transform="translate(0)">
    <path id="Path_51" data-name="Path 51" d="M9.706,12.309,0,8.149,27.161,0,19.013,27.162l-4.16-9.706L8.419,18.743ZM4.861,8.425l5.7,2.441,10.58-7.324ZM18.737,22.3,23.62,6.024,16.3,16.6Zm-3.878-6.54,7.78-11.238L11.4,12.3l-.865,4.323Z" transform="translate(1.182 -0.001)" fill="#fff"/>
    <path id="Path_52" data-name="Path 52" d="M0,10.1H1.661V0H0Z" transform="translate(1.174 28.348) rotate(-135)" fill="#fff"/>
    <path id="Path_53" data-name="Path 53" d="M0,8.3H1.661V0H0Z" transform="translate(1.268 21.207) rotate(-135)" fill="#fff"/>
    <path id="Path_54" data-name="Path 54" d="M0,8.3H1.661V0H0Z" transform="translate(8.315 28.253) rotate(-135)" fill="#fff"/>
  </g>
</svg>
