<svg xmlns="http://www.w3.org/2000/svg" width="15.344" height="23.975" viewBox="0 0 15.344 23.975">
  <g id="microphone" transform="translate(-78.336)">
    <g id="Group_82" data-name="Group 82" transform="translate(78.336 11.536)">
      <g id="Group_81" data-name="Group 81" transform="translate(0)">
        <path id="Path_130" data-name="Path 130" d="M93.68,210.254a.846.846,0,0,0-1.692,0,5.98,5.98,0,1,1-11.959,0,.846.846,0,1,0-1.692,0,7.671,7.671,0,0,0,6.826,7.644v2.256H82.087a.846.846,0,0,0,0,1.692h7.841a.846.846,0,1,0,0-1.692H86.854V217.9A7.671,7.671,0,0,0,93.68,210.254Z" transform="translate(-78.336 -209.408)" fill="#fff"/>
      </g>
    </g>
    <g id="Group_84" data-name="Group 84" transform="translate(81.298)">
      <g id="Group_83" data-name="Group 83" transform="translate(0)">
        <path id="Path_131" data-name="Path 131" d="M136.806,0a4.719,4.719,0,0,0-4.71,4.71v7.644a4.71,4.71,0,1,0,9.421.028V4.71A4.719,4.719,0,0,0,136.806,0Z" transform="translate(-132.096)" fill="#fff"/>
      </g>
    </g>
  </g>
</svg>
