<svg xmlns="http://www.w3.org/2000/svg" width="21.95" height="36.524" viewBox="0 0 21.95 36.524">
  <g id="Group_79" data-name="Group 79" transform="translate(-28 -217.35)">
    <g id="user_1_" data-name="user(1)" transform="translate(28 228)">
      <path id="Path_93" data-name="Path 93" d="M93.264,12.464a6.03,6.03,0,0,0,4.406-1.826A6.03,6.03,0,0,0,99.5,6.232,6.031,6.031,0,0,0,97.67,1.826a6.23,6.23,0,0,0-8.812,0,6.03,6.03,0,0,0-1.826,4.406,6.03,6.03,0,0,0,1.826,4.406A6.031,6.031,0,0,0,93.264,12.464Zm0,0" transform="translate(-82.634)" fill="#fff"/>
      <path id="Path_94" data-name="Path 94" d="M21.534,254.714a15.392,15.392,0,0,0-.21-1.635,12.881,12.881,0,0,0-.4-1.644,8.119,8.119,0,0,0-.676-1.533,5.785,5.785,0,0,0-1.019-1.328,4.493,4.493,0,0,0-1.464-.92,5.059,5.059,0,0,0-1.869-.338,1.9,1.9,0,0,0-1.013.43c-.3.2-.659.427-1.055.68a6.046,6.046,0,0,1-1.365.6,5.3,5.3,0,0,1-3.34,0,6.031,6.031,0,0,1-1.364-.6c-.393-.251-.748-.48-1.056-.681a1.894,1.894,0,0,0-1.012-.43,5.052,5.052,0,0,0-1.868.339,4.489,4.489,0,0,0-1.464.92A5.786,5.786,0,0,0,1.339,249.9a8.135,8.135,0,0,0-.676,1.533,12.911,12.911,0,0,0-.4,1.644,15.338,15.338,0,0,0-.21,1.635c-.034.5-.052,1.009-.052,1.528a4.3,4.3,0,0,0,1.276,3.25,4.593,4.593,0,0,0,3.288,1.2H17.022a4.592,4.592,0,0,0,3.288-1.2,4.294,4.294,0,0,0,1.276-3.251c0-.521-.018-1.036-.052-1.528Zm0,0" transform="translate(0 -234.818)" fill="#fff"/>
    </g>
    <path id="Path_124" data-name="Path 124" d="M10.749,39.941a.647.647,0,0,0,.452,0l8.135-3.05v7.033a2.546,2.546,0,0,1,1.286,0V36.408l.912-.326a.644.644,0,0,0,0-1.2L11.2,31.019a.651.651,0,0,0-.452,0L.416,34.877a.644.644,0,0,0,0,1.2Z" transform="translate(28 186.372)" fill="#fff"/>
    <path id="Path_125" data-name="Path 125" d="M422.9,360.972c-1.1,0-1.929,1.382-1.929,3.216v1.286a.643.643,0,0,0,.643.643h2.573a.643.643,0,0,0,.643-.643v-1.286C424.834,362.354,424,360.972,422.9,360.972Z" transform="translate(-374.925 -129.473)" fill="#fff"/>
  </g>
</svg>
