<svg id="user_1_" data-name="user(1)" xmlns="http://www.w3.org/2000/svg" width="16.363" height="19.612" viewBox="0 0 16.363 19.612">
  <path id="Path_93" data-name="Path 93" d="M91.755,9.447A4.571,4.571,0,0,0,95.1,8.064a4.57,4.57,0,0,0,1.384-3.34A4.571,4.571,0,0,0,95.1,1.384a4.723,4.723,0,0,0-6.68,0,4.571,4.571,0,0,0-1.384,3.34,4.57,4.57,0,0,0,1.384,3.34A4.572,4.572,0,0,0,91.755,9.447Zm0,0" transform="translate(-83.698 0)" fill="#fff"/>
  <path id="Path_94" data-name="Path 94" d="M16.323,252.924a11.667,11.667,0,0,0-.159-1.239,9.764,9.764,0,0,0-.3-1.246,6.154,6.154,0,0,0-.512-1.162,4.385,4.385,0,0,0-.772-1.007,3.406,3.406,0,0,0-1.109-.7,3.835,3.835,0,0,0-1.416-.256,1.438,1.438,0,0,0-.768.326c-.23.15-.5.324-.8.516a4.583,4.583,0,0,1-1.035.456,4.018,4.018,0,0,1-2.531,0,4.572,4.572,0,0,1-1.034-.456c-.3-.19-.567-.364-.8-.516a1.436,1.436,0,0,0-.767-.326,3.83,3.83,0,0,0-1.416.257,3.4,3.4,0,0,0-1.11.7,4.386,4.386,0,0,0-.772,1.006A6.166,6.166,0,0,0,.5,250.439a9.787,9.787,0,0,0-.3,1.246,11.626,11.626,0,0,0-.159,1.24c-.026.375-.039.765-.039,1.158a3.257,3.257,0,0,0,.967,2.464,3.482,3.482,0,0,0,2.492.909H12.9a3.481,3.481,0,0,0,2.492-.909,3.255,3.255,0,0,0,.967-2.464c0-.4-.013-.785-.04-1.158Zm0,0" transform="translate(0 -237.843)" fill="#fff"/>
</svg>
