<svg id="qr-code_1_" data-name="qr-code (1)" xmlns="http://www.w3.org/2000/svg" width="24.863" height="24.863" viewBox="0 0 24.863 24.863">
  <path id="Path_351" data-name="Path 351" d="M374.216,6.993a.777.777,0,0,1-.777-.777V2.234a.681.681,0,0,0-.68-.68h-3.982a.777.777,0,0,1,0-1.554h3.982a2.236,2.236,0,0,1,2.234,2.234V6.216A.777.777,0,0,1,374.216,6.993Z" transform="translate(-350.13)" fill="#65539e"/>
  <path id="Path_352" data-name="Path 352" d="M.777,6.993A.777.777,0,0,1,0,6.216V2.234A2.236,2.236,0,0,1,2.234,0H6.216a.777.777,0,0,1,0,1.554H2.234a.681.681,0,0,0-.68.68V6.216A.777.777,0,0,1,.777,6.993Z" fill="#65539e"/>
  <path id="Path_353" data-name="Path 353" d="M6.216,374.993H2.234A2.236,2.236,0,0,1,0,372.759v-3.982a.777.777,0,0,1,1.554,0v3.982a.681.681,0,0,0,.68.68H6.216a.777.777,0,1,1,0,1.554Z" transform="translate(0 -350.13)" fill="#65539e"/>
  <path id="Path_354" data-name="Path 354" d="M372.759,374.993h-3.982a.777.777,0,0,1,0-1.554h3.982a.681.681,0,0,0,.68-.68v-3.982a.777.777,0,0,1,1.554,0v3.982A2.236,2.236,0,0,1,372.759,374.993Z" transform="translate(-350.13 -350.13)" fill="#65539e"/>
  <path id="Path_355" data-name="Path 355" d="M70.313,72.547H66.234A2.236,2.236,0,0,1,64,70.313V66.234A2.236,2.236,0,0,1,66.234,64h4.079a2.236,2.236,0,0,1,2.234,2.234v4.079A2.236,2.236,0,0,1,70.313,72.547Zm-4.079-6.993a.681.681,0,0,0-.68.68v4.079a.681.681,0,0,0,.68.68h4.079a.681.681,0,0,0,.68-.68V66.234a.681.681,0,0,0-.68-.68Z" transform="translate(-60.892 -60.892)" fill="#65539e"/>
  <path id="Path_356" data-name="Path 356" d="M70.313,280.547H66.234A2.236,2.236,0,0,1,64,278.313v-4.079A2.236,2.236,0,0,1,66.234,272h4.079a2.236,2.236,0,0,1,2.234,2.234v4.079A2.236,2.236,0,0,1,70.313,280.547Zm-4.079-6.993a.681.681,0,0,0-.68.68v4.079a.681.681,0,0,0,.68.68h4.079a.681.681,0,0,0,.68-.68v-4.079a.681.681,0,0,0-.68-.68Z" transform="translate(-60.892 -258.792)" fill="#65539e"/>
  <path id="Path_357" data-name="Path 357" d="M278.313,72.547h-4.079A2.236,2.236,0,0,1,272,70.313V66.234A2.236,2.236,0,0,1,274.234,64h4.079a2.236,2.236,0,0,1,2.234,2.234v4.079A2.236,2.236,0,0,1,278.313,72.547Zm-4.079-6.993a.681.681,0,0,0-.68.68v4.079a.681.681,0,0,0,.68.68h4.079a.681.681,0,0,0,.68-.68V66.234a.681.681,0,0,0-.68-.68Z" transform="translate(-258.792 -60.892)" fill="#65539e"/>
  <path id="Path_358" data-name="Path 358" d="M279.284,275.885h-1.845v-2.622A1.264,1.264,0,0,0,276.176,272h-2.914A1.264,1.264,0,0,0,272,273.263v2.914a1.264,1.264,0,0,0,1.263,1.263h2.622v1.845a1.264,1.264,0,0,0,1.263,1.263h2.137a1.264,1.264,0,0,0,1.263-1.263v-2.137A1.264,1.264,0,0,0,279.284,275.885Zm-5.73-2.331h2.331v2.331h-2.331Zm5.439,5.439h-1.554v-1.554h1.554Z" transform="translate(-258.792 -258.792)" fill="#65539e"/>
  <path id="Path_359" data-name="Path 359" d="M129.554,130.331h-.777a.777.777,0,0,1-.777-.777v-.777a.777.777,0,0,1,.777-.777h.777a.777.777,0,0,1,.777.777v.777A.777.777,0,0,1,129.554,130.331Z" transform="translate(-121.784 -121.784)" fill="#65539e"/>
  <path id="Path_360" data-name="Path 360" d="M337.554,130.331h-.777a.777.777,0,0,1-.777-.777v-.777a.777.777,0,0,1,.777-.777h.777a.777.777,0,0,1,.777.777v.777A.777.777,0,0,1,337.554,130.331Z" transform="translate(-319.684 -121.784)" fill="#65539e"/>
  <path id="Path_361" data-name="Path 361" d="M129.554,338.331h-.777a.777.777,0,0,1-.777-.777v-.777a.777.777,0,0,1,.777-.777h.777a.777.777,0,0,1,.777.777v.777A.777.777,0,0,1,129.554,338.331Z" transform="translate(-121.784 -319.684)" fill="#65539e"/>
</svg>
