<svg xmlns="http://www.w3.org/2000/svg" width="24.231" height="24.231" viewBox="0 0 24.231 24.231">
  <g id="edit_1_" data-name="edit(1)" transform="translate(0 -0.004)">
    <g id="Group_67" data-name="Group 67" transform="translate(0 1.734)">
      <g id="Group_66" data-name="Group 66">
        <path id="Path_83" data-name="Path 83" d="M19.9,44.522a.865.865,0,0,0-.865.865v8.654a.865.865,0,0,1-.865.865H2.6a.865.865,0,0,1-.865-.865V36.733a.865.865,0,0,1,.865-.865H12.981a.865.865,0,1,0,0-1.731H2.6a2.6,2.6,0,0,0-2.6,2.6V54.041a2.6,2.6,0,0,0,2.6,2.6H18.173a2.6,2.6,0,0,0,2.6-2.6V45.387A.865.865,0,0,0,19.9,44.522Z" transform="translate(0 -34.137)" fill="#fff"/>
      </g>
    </g>
    <g id="Group_69" data-name="Group 69" transform="translate(5.193 0.004)">
      <g id="Group_68" data-name="Group 68" transform="translate(0 0)">
        <path id="Path_84" data-name="Path 84" d="M120.477.974a3.312,3.312,0,0,0-4.685,0l-11.4,11.4a.875.875,0,0,0-.209.338L102.453,17.9a.865.865,0,0,0,.82,1.139.879.879,0,0,0,.273-.044l5.192-1.731a.866.866,0,0,0,.338-.209l11.4-11.4A3.313,3.313,0,0,0,120.477.974Z" transform="translate(-102.409 -0.004)" fill="#fff"/>
      </g>
    </g>
  </g>
</svg>
