<svg xmlns="http://www.w3.org/2000/svg" width="24.899" height="25.921" viewBox="0 0 24.899 25.921">
  <g id="Message" transform="translate(-38.962 -280.791)">
    <path id="Path_85" data-name="Path 85" d="M54.249,303.459a32.08,32.08,0,0,1-3.33.264,11.527,11.527,0,0,1-11.957-11.579c0-6.282,6.016-11.353,11.957-11.353,7.152,0,12.941,5.071,12.941,11.353a11.372,11.372,0,0,1-3.974,8.892v5.676Zm7.605-11.2c0-5.223-4.73-9.461-10.935-9.461-4.957,0-9.953,4.238-9.953,9.461s3.9,9.46,9.953,9.46a27.555,27.555,0,0,0,3.556-.265l3.406,2.271v-3.558a9.982,9.982,0,0,0,3.972-7.908Z" fill="#fff" fill-rule="evenodd"/>
    <path id="Path_86" data-name="Path 86" d="M303.816,441.991a1.916,1.916,0,0,0-1.362.531h0a2.018,2.018,0,0,0-.567,1.362,1.949,1.949,0,0,0,.567,1.362h0a1.92,1.92,0,0,0,2.725,0h0a1.949,1.949,0,0,0,.567-1.362,2.017,2.017,0,0,0-.567-1.362h0a1.916,1.916,0,0,0-1.363-.531Z" transform="translate(-247.372 -151.664)" fill="#fff" fill-rule="evenodd"/>
    <path id="Path_87" data-name="Path 87" d="M122.77,441.991a1.917,1.917,0,0,0-1.362.531h0a2.018,2.018,0,0,0-.567,1.362,1.949,1.949,0,0,0,.567,1.362h0a1.92,1.92,0,0,0,2.724,0h0a1.943,1.943,0,0,0,.569-1.362,2.01,2.01,0,0,0-.569-1.362h0a1.913,1.913,0,0,0-1.362-.531Z" transform="translate(-77.036 -151.664)" fill="#fff" fill-rule="evenodd"/>
    <path id="Path_88" data-name="Path 88" d="M213.572,441.991a1.985,1.985,0,0,0-1.362.531h0a1.982,1.982,0,0,0-.529,1.362,1.918,1.918,0,0,0,.529,1.362h0a1.861,1.861,0,0,0,1.362.567,1.741,1.741,0,0,0,1.362-.567,1.834,1.834,0,0,0,.607-1.362,1.894,1.894,0,0,0-.607-1.362h0a1.85,1.85,0,0,0-1.362-.531Z" transform="translate(-162.501 -151.664)" fill="#fff" fill-rule="evenodd"/>
  </g>
</svg>
