<svg xmlns="http://www.w3.org/2000/svg" width="23.043" height="23.039" viewBox="0 0 23.043 23.039">
  <g id="push-pin" transform="translate(0.016)">
    <path id="Path_79" data-name="Path 79" d="M67.307,158.675a4.055,4.055,0,0,0-5.734,0l12.01,12.01a4.055,4.055,0,0,0,0-5.734Z" transform="translate(-58.838 -150.393)" fill="#fff"/>
    <path id="Path_80" data-name="Path 80" d="M218.924,95.46l-4.753,3.211,5.906,5.906,3.211-4.753Z" transform="translate(-204.561 -91.159)" fill="#fff"/>
    <path id="Path_81" data-name="Path 81" d="M334.706,0a2.7,2.7,0,0,0,0,3.823l3.409,3.409a2.7,2.7,0,0,0,3.823,0Z" transform="translate(-318.91)" fill="#fff"/>
    <path id="Path_82" data-name="Path 82" d="M.036.6,10.388,0V1.352L.036.6Z" transform="translate(-0.041 22.109) rotate(-45)" fill="#fff"/>
  </g>
</svg>
