<svg xmlns="http://www.w3.org/2000/svg" width="18.842" height="18.842" viewBox="0 0 18.842 18.842">
  <g id="link" transform="translate(0)">
    <g id="Group_65" data-name="Group 65" transform="translate(0)">
      <path id="Path_78" data-name="Path 78" d="M17.464,1.378a4.716,4.716,0,0,0-6.663,0l-2.7,2.7a.393.393,0,0,0-.082.436.379.379,0,0,0,.377.234l.12-.009a3.368,3.368,0,0,1,.618.016,5.669,5.669,0,0,1,1.107.224.389.389,0,0,0,.39-.1l1.834-1.834a2.414,2.414,0,0,1,3.332,0,2.359,2.359,0,0,1,0,3.332L13.171,9a4.583,4.583,0,0,0-1.2-2.127,4.645,4.645,0,0,0-2.9-1.341,4.71,4.71,0,0,0-2.781.608,4.631,4.631,0,0,0-.981.733L1.377,10.8A4.712,4.712,0,0,0,8.04,17.464l2.7-2.7a.393.393,0,0,0-.293-.67l-.125.009A3.316,3.316,0,0,1,9.7,14.09,5.7,5.7,0,0,1,8.6,13.866a.388.388,0,0,0-.389.1L6.375,15.8a2.414,2.414,0,0,1-3.332,0,2.359,2.359,0,0,1,0-3.332L5.67,9.84a4.583,4.583,0,0,0,1.2,2.127,4.645,4.645,0,0,0,2.9,1.34q.22.02.438.02a4.843,4.843,0,0,0,3.323-1.36l3.926-3.926A4.717,4.717,0,0,0,17.464,1.378Zm-6.583,9.5A2.336,2.336,0,0,1,7.96,7.96a2.335,2.335,0,0,1,2.921,2.922Z" transform="translate(0 0)" fill="#fff"/>
    </g>
  </g>
</svg>
