<svg xmlns="http://www.w3.org/2000/svg" width="24.586" height="26.821" viewBox="0 0 24.586 26.821">
  <g id="share" transform="translate(0 0)">
    <path id="Path_100" data-name="Path 100" d="M321.932,19.632A3.632,3.632,0,1,1,318.3,16,3.632,3.632,0,0,1,321.932,19.632Zm0,0" transform="translate(-298.184 -15.162)" fill="#f7f7f7"/>
    <path id="Path_101" data-name="Path 101" d="M303.138,8.941a4.47,4.47,0,1,1,4.47-4.47A4.475,4.475,0,0,1,303.138,8.941Zm0-7.264a2.794,2.794,0,1,0,2.794,2.794,2.8,2.8,0,0,0-2.794-2.794Zm0,0" transform="translate(-283.022)" fill="#f7f7f7"/>
    <path id="Path_102" data-name="Path 102" d="M321.932,360.964a3.632,3.632,0,1,1-3.632-3.632A3.632,3.632,0,0,1,321.932,360.964Zm0,0" transform="translate(-298.184 -338.613)" fill="#f7f7f7"/>
    <path id="Path_103" data-name="Path 103" d="M303.138,350.273a4.47,4.47,0,1,1,4.47-4.47A4.475,4.475,0,0,1,303.138,350.273Zm0-7.264a2.794,2.794,0,1,0,2.794,2.794A2.8,2.8,0,0,0,303.138,343.008Zm0,0" transform="translate(-283.022 -323.451)" fill="#f7f7f7"/>
    <path id="Path_104" data-name="Path 104" d="M23.264,190.3a3.632,3.632,0,1,1-3.632-3.632A3.632,3.632,0,0,1,23.264,190.3Zm0,0" transform="translate(-15.162 -176.889)" fill="#f7f7f7"/>
    <path id="Path_105" data-name="Path 105" d="M4.47,179.608a4.47,4.47,0,1,1,4.47-4.47,4.475,4.475,0,0,1-4.47,4.47Zm0-7.264a2.794,2.794,0,1,0,2.794,2.794,2.8,2.8,0,0,0-2.794-2.794Zm0,0" transform="translate(0 -161.727)" fill="#f7f7f7"/>
    <path id="Path_106" data-name="Path 106" d="M115.467,98.363a1.118,1.118,0,0,1-.554-2.089l10.37-5.912a1.118,1.118,0,1,1,1.106,1.942l-10.37,5.912a1.11,1.11,0,0,1-.552.147Zm0,0" transform="translate(-108.358 -85.488)" fill="#f7f7f7"/>
    <path id="Path_107" data-name="Path 107" d="M125.857,274.367a1.111,1.111,0,0,1-.552-.146l-10.37-5.912a1.118,1.118,0,0,1,1.106-1.942l10.37,5.912a1.118,1.118,0,0,1-.554,2.089Zm0,0" transform="translate(-108.38 -252.273)" fill="#f7f7f7"/>
  </g>
</svg>
