<svg xmlns="http://www.w3.org/2000/svg" width="25.225" height="22.109" viewBox="0 0 25.225 22.109">
  <g id="gallery_1_" data-name="gallery(1)" transform="translate(-9 -39.172)">
    <g id="Group_71" data-name="Group 71" transform="translate(9 39.172)">
      <g id="Group_70" data-name="Group 70" transform="translate(0 0)">
        <path id="Path_89" data-name="Path 89" d="M176.562,159.668a2.573,2.573,0,1,0,2.573,2.573A2.573,2.573,0,0,0,176.562,159.668Zm0,3.921a1.348,1.348,0,0,1,0-2.7h0a1.348,1.348,0,1,1,0,2.7Z" transform="translate(-163.788 -151.865)" fill="#fff"/>
        <path id="Path_90" data-name="Path 90" d="M23.036,28.5,6.311,26.6a2.3,2.3,0,0,0-1.807.521,2.328,2.328,0,0,0-.888,1.593l-.306,2.512h-.95A2.462,2.462,0,0,0,0,33.766V46.295a2.328,2.328,0,0,0,2.266,2.389h16.91a2.514,2.514,0,0,0,2.573-2.389V45.8a3.063,3.063,0,0,0,1.164-.49,2.543,2.543,0,0,0,.888-1.654l1.409-12.436A2.481,2.481,0,0,0,23.036,28.5Zm-2.512,17.8a1.29,1.29,0,0,1-1.348,1.164H2.359a1.1,1.1,0,0,1-1.135-1.07q0-.047,0-.094V44.028l4.748-3.492a1.47,1.47,0,0,1,1.9.092l3.339,2.941a2.88,2.88,0,0,0,1.807.674,2.787,2.787,0,0,0,1.47-.4l6.034-3.492v5.943Zm0-7.382L13.846,42.8a1.562,1.562,0,0,1-1.807-.153L8.669,39.678a2.726,2.726,0,0,0-3.4-.123L1.226,42.5v-8.73a1.237,1.237,0,0,1,1.133-1.317H19.176a1.409,1.409,0,0,1,1.348,1.317v5.146Zm3.463-7.854v.012l-1.44,12.436a1.041,1.041,0,0,1-.4.827c-.123.123-.4.184-.4.245V33.766a2.634,2.634,0,0,0-2.573-2.542H4.534l.276-2.389a1.409,1.409,0,0,1,.459-.8,1.409,1.409,0,0,1,.919-.245l16.694,1.93A1.225,1.225,0,0,1,23.987,31.059Z" transform="translate(0 -26.576)" fill="#fff"/>
      </g>
    </g>
  </g>
</svg>
