<svg xmlns="http://www.w3.org/2000/svg" width="22.838" height="19.327" viewBox="0 0 22.838 19.327">
  <g id="folder" transform="translate(0 -39.356)">
    <g id="Group_72" data-name="Group 72" transform="translate(0 39.356)">
      <path id="Path_91" data-name="Path 91" d="M20.024,42.875H12.8a1.092,1.092,0,0,1-.778-.325L9.762,40.174a2.858,2.858,0,0,0-2.035-.818H2.814A2.817,2.817,0,0,0,0,42.17v13.7a2.817,2.817,0,0,0,2.814,2.814H20.037a2.817,2.817,0,0,0,2.8-2.823V45.689A2.817,2.817,0,0,0,20.024,42.875Zm1.093,12.989a1.094,1.094,0,0,1-1.084,1.1H2.814a1.094,1.094,0,0,1-1.093-1.093V42.17a1.1,1.1,0,0,1,1.093-1.094H7.778a1.086,1.086,0,0,1,.754.3l2.243,2.365a2.827,2.827,0,0,0,2.02.855h7.228a1.094,1.094,0,0,1,1.093,1.093V55.864Z" transform="translate(0 -39.356)" fill="#fff"/>
    </g>
  </g>
</svg>
