<svg xmlns="http://www.w3.org/2000/svg" width="65.176" height="35.174" viewBox="0 0 65.176 35.174">
  <g id="_17-shuttle_van" data-name="17-shuttle van" transform="translate(-3 -195)">
    <g id="linear_color" data-name="linear color" transform="translate(3 195)">
      <path id="Path_291" data-name="Path 291" d="M65.6,211.623,58.3,208.7l-3.869-5.8-.012-.019-3.207-4.81A4.644,4.644,0,0,0,47.342,196H8.655A4.661,4.661,0,0,0,4,200.655v25.863a1.552,1.552,0,0,0,1.552,1.552h4.683a6.716,6.716,0,0,0,11.324,0H49.548a6.716,6.716,0,0,0,11.324,0h6.753a1.552,1.552,0,0,0,1.552-1.552v-9.612A5.663,5.663,0,0,0,65.6,211.623Zm-11.22-3.208H46.416v-3.1h5.893ZM8.655,199.1H47.342a1.547,1.547,0,0,1,1.29.692l1.608,2.412H44.864a1.552,1.552,0,0,0-1.552,1.552v6.207a1.552,1.552,0,0,0,1.552,1.552H56.98l7.466,2.986a2.575,2.575,0,0,1,1.626,2.4v1.853H58.787a6.7,6.7,0,0,0-7.154,0H19.474a6.7,6.7,0,0,0-7.154,0H7.1v-18.1A1.553,1.553,0,0,1,8.655,199.1ZM7.1,224.967v-3.1H9.691a6.689,6.689,0,0,0-.518,2.586c0,.174.009.346.022.517Zm8.794,3.1a3.621,3.621,0,1,1,3.621-3.621A3.621,3.621,0,0,1,15.9,228.071Zm6.7-3.1c.013-.171.022-.343.022-.517a6.689,6.689,0,0,0-.517-2.586H49a6.688,6.688,0,0,0-.517,2.586c0,.174.009.346.022.517Zm32.61,3.1a3.621,3.621,0,1,1,3.621-3.621,3.621,3.621,0,0,1-3.621,3.621Zm6.7-3.1c.013-.171.022-.343.022-.517a6.689,6.689,0,0,0-.517-2.586h4.655v3.1Z" transform="translate(-4 -196)" fill="#65539e"/>
      <path id="Path_292" data-name="Path 292" d="M53.552,253.311H78.381a1.552,1.552,0,0,0,1.552-1.552v-6.207A1.552,1.552,0,0,0,78.381,244H53.552A1.552,1.552,0,0,0,52,245.552v6.207A1.552,1.552,0,0,0,53.552,253.311ZM55.1,247.1H76.829v3.1H55.1Z" transform="translate(-45.793 -237.793)" fill="#65539e"/>
      <ellipse id="Ellipse_142" data-name="Ellipse 142" cx="1.5" cy="1" rx="1.5" ry="1" transform="translate(50.088 27.269)" fill="#65539e"/>
      <ellipse id="Ellipse_143" data-name="Ellipse 143" cx="2" cy="1" rx="2" ry="1" transform="translate(10.088 27.269)" fill="#65539e"/>
    </g>
  </g>
</svg>
