<svg xmlns="http://www.w3.org/2000/svg" width="52.255" height="59.454" viewBox="0 0 52.255 59.454">
  <g id="headphones" transform="translate(-31)">
    <g id="Group_204" data-name="Group 204" transform="translate(37.967 24.386)">
      <g id="Group_203" data-name="Group 203" transform="translate(0)">
        <path id="Path_333" data-name="Path 333" d="M96.225,210A5.231,5.231,0,0,0,91,215.225v14.167a5.225,5.225,0,0,0,10.451,0V215.225A5.231,5.231,0,0,0,96.225,210Z" transform="translate(-91 -210)" fill="#65539e"/>
      </g>
    </g>
    <g id="Group_206" data-name="Group 206" transform="translate(31 28.144)">
      <g id="Group_205" data-name="Group 205" transform="translate(0)">
        <path id="Path_334" data-name="Path 334" d="M34.484,243.833a8.642,8.642,0,0,1,.148-1.467A5.215,5.215,0,0,0,31,247.317v7.2a5.215,5.215,0,0,0,3.632,4.951A8.642,8.642,0,0,1,34.484,258Z" transform="translate(-31 -242.366)" fill="#65539e"/>
      </g>
    </g>
    <g id="Group_208" data-name="Group 208" transform="translate(51.902 24.386)">
      <g id="Group_207" data-name="Group 207">
        <path id="Path_335" data-name="Path 335" d="M230.16,210a5.231,5.231,0,0,0-5.225,5.225v14.167a5.231,5.231,0,0,0,5.225,5.225,5.155,5.155,0,0,0,1.5-.245,5.215,5.215,0,0,1-4.981,3.728H221.13a5.226,5.226,0,1,0,0,3.484h5.546a8.719,8.719,0,0,0,8.709-8.709V215.225A5.231,5.231,0,0,0,230.16,210Z" transform="translate(-211 -210)" fill="#65539e"/>
      </g>
    </g>
    <g id="Group_210" data-name="Group 210" transform="translate(79.623 28.144)">
      <g id="Group_209" data-name="Group 209">
        <path id="Path_336" data-name="Path 336" d="M449.722,242.366a8.642,8.642,0,0,1,.148,1.467V258a8.643,8.643,0,0,1-.148,1.467,5.215,5.215,0,0,0,3.632-4.951v-7.2A5.215,5.215,0,0,0,449.722,242.366Z" transform="translate(-449.722 -242.366)" fill="#65539e"/>
      </g>
    </g>
    <g id="Group_212" data-name="Group 212" transform="translate(31)">
      <g id="Group_211" data-name="Group 211" transform="translate(0)">
        <path id="Path_337" data-name="Path 337" d="M57.127,0A26.156,26.156,0,0,0,31,26.127v.044a8.625,8.625,0,0,1,3.563-1.618,22.617,22.617,0,0,1,45.128,0,8.628,8.628,0,0,1,3.563,1.618v-.044A26.156,26.156,0,0,0,57.127,0Z" transform="translate(-31)" fill="#65539e"/>
      </g>
    </g>
  </g>
</svg>
