<svg xmlns="http://www.w3.org/2000/svg" width="60.057" height="36.556" viewBox="0 0 60.057 36.556">
  <g id="Group_221" data-name="Group 221" transform="translate(-84 -320)">
    <path id="Path_342" data-name="Path 342" d="M22.528,45.556h47a6.536,6.536,0,0,0,6.528-6.528v-23.5A6.536,6.536,0,0,0,69.529,9h-47A6.536,6.536,0,0,0,16,15.528v23.5A6.536,6.536,0,0,0,22.528,45.556Zm47-2.611h-47a3.917,3.917,0,0,1-3.917-3.917V24.667H73.445V39.028A3.917,3.917,0,0,1,69.529,42.945Zm-50.918-23.5H73.445v2.611H18.611Zm3.917-7.833h47a3.917,3.917,0,0,1,3.917,3.917v1.306H18.611V15.528a3.917,3.917,0,0,1,3.917-3.917Z" transform="translate(68 311)" fill="#65539e"/>
    <path id="Path_343" data-name="Path 343" d="M56.76,25a5.207,5.207,0,0,0-3.277,1.167,5.222,5.222,0,1,0,0,8.11A5.222,5.222,0,1,0,56.76,25Zm-6.528,7.833a2.611,2.611,0,1,1,2.611-2.611A2.611,2.611,0,0,1,50.232,32.833Zm6.528,0a2.569,2.569,0,0,1-1.7-.635,5.152,5.152,0,0,0,0-3.953,2.569,2.569,0,0,1,1.7-.635,2.611,2.611,0,1,1,0,5.222Z" transform="translate(76.852 315.889)" fill="#65539e"/>
    <path id="Path_344" data-name="Path 344" d="M40.278,31H23.306a1.306,1.306,0,0,0,0,2.611H40.278a1.306,1.306,0,0,0,0-2.611Z" transform="translate(69.833 317.723)" fill="#65539e"/>
    <path id="Path_345" data-name="Path 345" d="M23.306,30.611h1.306a1.306,1.306,0,1,0,0-2.611H23.306a1.306,1.306,0,1,0,0,2.611Z" transform="translate(69.833 316.806)" fill="#65539e"/>
    <path id="Path_346" data-name="Path 346" d="M27.306,30.611h1.306a1.306,1.306,0,1,0,0-2.611H27.306a1.306,1.306,0,0,0,0,2.611Z" transform="translate(71.056 316.806)" fill="#65539e"/>
    <path id="Path_347" data-name="Path 347" d="M31.306,30.611h1.306a1.306,1.306,0,1,0,0-2.611H31.306a1.306,1.306,0,1,0,0,2.611Z" transform="translate(72.278 316.806)" fill="#65539e"/>
    <path id="Path_348" data-name="Path 348" d="M36.611,28H35.306a1.306,1.306,0,0,0,0,2.611h1.306a1.306,1.306,0,1,0,0-2.611Z" transform="translate(73.5 316.806)" fill="#65539e"/>
  </g>
</svg>
