<svg id="presentation" xmlns="http://www.w3.org/2000/svg" width="48.588" height="48.588" viewBox="0 0 48.588 48.588">
  <g id="Group_176" data-name="Group 176">
    <g id="Group_175" data-name="Group 175">
      <path id="Path_288" data-name="Path 288" d="M46.159,24.294h-.81V4.859h.81a2.429,2.429,0,1,0,0-4.859H2.429a2.429,2.429,0,0,0,0,4.859h.81V24.294h-.81a2.429,2.429,0,1,0,0,4.859H46.159a2.429,2.429,0,1,0,0-4.859ZM2.429,3.239a.81.81,0,0,1,0-1.62H46.159a.81.81,0,0,1,0,1.62Zm41.3,1.62V24.294H4.859V4.859Zm2.429,22.675H2.429a.81.81,0,1,1,0-1.62H46.159a.81.81,0,1,1,0,1.62Z" fill="#65539e"/>
      <path id="Path_289" data-name="Path 289" d="M137.341,80.355a.81.81,0,0,0,.81-.81V75.581l2.429,1.032v4.832l0,.009a.809.809,0,0,0,.061.3q.084.131.171.259a.809.809,0,0,0,.262.179L145.1,83.9a7.127,7.127,0,0,0,5.535,0l4.022-1.708a.809.809,0,0,0,.262-.179q.088-.128.171-.259a.808.808,0,0,0,.061-.3l0-.009V76.613l3.207-1.363a1.455,1.455,0,0,0,0-2.639l-9.993-4.246a1.276,1.276,0,0,0-1.006,0l-9.992,4.246a1.417,1.417,0,0,0-.842,1.319v5.615A.81.81,0,0,0,137.341,80.355Zm16.2.555-3.527,1.5a5.516,5.516,0,0,1-4.279,0l-3.531-1.5V77.3l5.166,2.2a1.276,1.276,0,0,0,1.006,0l5.166-2.2V80.91Zm-5.669-11,9.459,4.02-3.292,1.4-.007,0-6.16,2.618-6.16-2.618-.007,0-3.292-1.4Z" transform="translate(-123.574 -61.784)" fill="#65539e"/>
      <path id="Path_290" data-name="Path 290" d="M46.969,336.978h-1.62v-1.041a5.417,5.417,0,0,0-3.04-4.813,4.049,4.049,0,1,0-5.258,0,5.417,5.417,0,0,0-3.04,4.813v1.041H29.963v-1.041a5.417,5.417,0,0,0-3.04-4.813,4.049,4.049,0,1,0-5.258,0,5.417,5.417,0,0,0-3.04,4.813v1.041H14.576v-1.041a5.417,5.417,0,0,0-3.04-4.813,4.049,4.049,0,1,0-5.258,0,5.417,5.417,0,0,0-3.04,4.813v1.041H1.62A1.621,1.621,0,0,0,0,338.6v1.62a1.621,1.621,0,0,0,1.62,1.62H46.969a1.621,1.621,0,0,0,1.62-1.62V338.6A1.621,1.621,0,0,0,46.969,336.978ZM39.68,325.64a2.429,2.429,0,1,1-2.429,2.429A2.429,2.429,0,0,1,39.68,325.64Zm-4.049,10.3a4.056,4.056,0,0,1,8.1,0v1.041h-8.1v-1.041Zm-11.337-10.3a2.429,2.429,0,1,1-2.429,2.429A2.429,2.429,0,0,1,24.294,325.64Zm-4.049,10.3a4.056,4.056,0,0,1,8.1,0v1.041h-8.1v-1.041ZM8.908,325.64a2.429,2.429,0,1,1-2.429,2.429A2.429,2.429,0,0,1,8.908,325.64Zm-4.049,10.3a3.943,3.943,0,0,1,4.049-3.818,3.943,3.943,0,0,1,4.049,3.818v1.041h-8.1Zm-3.239,4.28V338.6H46.969v1.62Z" transform="translate(0 -293.248)" fill="#65539e"/>
    </g>
  </g>
</svg>
