<svg xmlns="http://www.w3.org/2000/svg" width="55.729" height="55.729" viewBox="0 0 55.729 55.729">
  <g id="Calendar" transform="translate(-2 -2)">
    <path id="Path_234" data-name="Path 234" d="M53.085,7.573H48.441V5.715a3.715,3.715,0,1,0-7.431,0V7.573H33.58V5.715a3.715,3.715,0,1,0-7.431,0V7.573H18.719V5.715a3.715,3.715,0,1,0-7.431,0V7.573H6.644A4.644,4.644,0,0,0,2,12.217V49.37a4.644,4.644,0,0,0,4.644,4.644H32.651a.929.929,0,1,0,0-1.858H6.644A2.8,2.8,0,0,1,3.858,49.37V20.576H55.872v15.79a.929.929,0,1,0,1.858,0V12.217a4.644,4.644,0,0,0-4.644-4.644ZM42.868,5.715a1.858,1.858,0,0,1,3.715,0v5.573a1.858,1.858,0,1,1-3.715,0Zm-14.861,0a1.858,1.858,0,1,1,3.715,0v5.573a1.858,1.858,0,1,1-3.715,0Zm-14.861,0a1.858,1.858,0,1,1,3.715,0v5.573a1.858,1.858,0,1,1-3.715,0Zm42.726,13H3.858v-6.5A2.8,2.8,0,0,1,6.644,9.431h4.644v1.858a3.715,3.715,0,1,0,7.431,0V9.431h7.431v1.858a3.715,3.715,0,1,0,7.431,0V9.431h7.431v1.858a3.715,3.715,0,1,0,7.431,0V9.431h4.644a2.8,2.8,0,0,1,2.786,2.786Z" fill="#65539e"/>
    <path id="Path_235" data-name="Path 235" d="M29.431,28.858A1.858,1.858,0,0,0,27.573,27H23.858A1.858,1.858,0,0,0,22,28.858v2.786A1.858,1.858,0,0,0,23.858,33.5h3.715a1.858,1.858,0,0,0,1.858-1.858Zm-5.573,2.786V28.858h3.715v2.786Z" transform="translate(-1.424 -1.779)" fill="#65539e"/>
    <path id="Path_236" data-name="Path 236" d="M17.431,28.858A1.858,1.858,0,0,0,15.573,27H11.858A1.858,1.858,0,0,0,10,28.858v2.786A1.858,1.858,0,0,0,11.858,33.5h3.715a1.858,1.858,0,0,0,1.858-1.858Zm-5.573,2.786V28.858h3.715v2.786Z" transform="translate(-0.569 -1.779)" fill="#65539e"/>
    <path id="Path_237" data-name="Path 237" d="M51.573,33.5a1.858,1.858,0,0,0,1.858-1.858V28.858A1.858,1.858,0,0,0,51.573,27H47.858A1.858,1.858,0,0,0,46,28.858v2.786A1.858,1.858,0,0,0,47.858,33.5Zm-3.715-4.644h3.715v2.786H47.858Z" transform="translate(-3.132 -1.779)" fill="#65539e"/>
    <path id="Path_238" data-name="Path 238" d="M29.431,37.858A1.858,1.858,0,0,0,27.573,36H23.858A1.858,1.858,0,0,0,22,37.858v2.786A1.858,1.858,0,0,0,23.858,42.5h3.715a1.858,1.858,0,0,0,1.858-1.858Zm-5.573,2.786V37.858h3.715v2.786Z" transform="translate(-1.424 -2.42)" fill="#65539e"/>
    <path id="Path_239" data-name="Path 239" d="M17.431,37.858A1.858,1.858,0,0,0,15.573,36H11.858A1.858,1.858,0,0,0,10,37.858v2.786A1.858,1.858,0,0,0,11.858,42.5h3.715a1.858,1.858,0,0,0,1.858-1.858Zm-5.573,2.786V37.858h3.715v2.786Z" transform="translate(-0.569 -2.42)" fill="#65539e"/>
    <path id="Path_240" data-name="Path 240" d="M27.573,45H23.858A1.858,1.858,0,0,0,22,46.858v2.786A1.858,1.858,0,0,0,23.858,51.5h3.715a1.858,1.858,0,0,0,1.858-1.858V46.858A1.858,1.858,0,0,0,27.573,45Zm-3.715,4.644V46.858h3.715v2.786Z" transform="translate(-1.424 -3.061)" fill="#65539e"/>
    <path id="Path_241" data-name="Path 241" d="M35.858,33.5h3.715a1.858,1.858,0,0,0,1.858-1.858V28.858A1.858,1.858,0,0,0,39.573,27H35.858A1.858,1.858,0,0,0,34,28.858v2.786A1.858,1.858,0,0,0,35.858,33.5Zm0-4.644h3.715v2.786H35.858Z" transform="translate(-2.278 -1.779)" fill="#65539e"/>
    <path id="Path_242" data-name="Path 242" d="M34,40.644A1.858,1.858,0,0,0,35.858,42.5a.929.929,0,1,0,0-1.858V37.858h3.715a.929.929,0,1,0,0-1.858H35.858A1.858,1.858,0,0,0,34,37.858Z" transform="translate(-2.278 -2.42)" fill="#65539e"/>
    <path id="Path_243" data-name="Path 243" d="M15.573,45H11.858A1.858,1.858,0,0,0,10,46.858v2.786A1.858,1.858,0,0,0,11.858,51.5h3.715a1.858,1.858,0,0,0,1.858-1.858V46.858A1.858,1.858,0,0,0,15.573,45Zm-3.715,4.644V46.858h3.715v2.786Z" transform="translate(-0.569 -3.061)" fill="#65539e"/>
    <path id="Path_244" data-name="Path 244" d="M48.075,36A12.075,12.075,0,1,0,60.149,48.075,12.075,12.075,0,0,0,48.075,36Zm0,22.292A10.217,10.217,0,1,1,58.292,48.075,10.217,10.217,0,0,1,48.075,58.292Z" transform="translate(-2.42 -2.42)" fill="#65539e"/>
    <path id="Path_245" data-name="Path 245" d="M53.851,44.787l-7.224,7.224-3.283-3.284a.929.929,0,1,0-1.313,1.313l3.94,3.941a.929.929,0,0,0,1.313,0L55.165,46.1a.929.929,0,1,0-1.313-1.313Z" transform="translate(-2.83 -3.026)" fill="#65539e"/>
  </g>
</svg>
