<svg xmlns="http://www.w3.org/2000/svg" width="55.73" height="48.546" viewBox="0 0 55.73 48.546">
  <g id="heartbeat" transform="translate(0 -33)">
    <g id="Group_143" data-name="Group 143" transform="translate(0 33)">
      <g id="Group_142" data-name="Group 142" transform="translate(0 0)">
        <path id="Path_250" data-name="Path 250" d="M40.927,33c-6.6,0-10.841,4.573-13.062,8.691C25.644,37.573,21.406,33,14.8,33,6.426,33,0,39.8,0,48.812a16.967,16.967,0,0,0,1.338,6.611H13.794l2.814-5.628a1.7,1.7,0,0,1,2.921,0L24.6,59.935l1.8-3.61a1.7,1.7,0,0,1,2.921,0l1.8,3.61L36.2,49.794a1.7,1.7,0,0,1,2.921,0l2.814,5.628H54.392a16.967,16.967,0,0,0,1.338-6.611C55.73,39.8,49.3,33,40.927,33Z" transform="translate(0 -33)" fill="#65539e"/>
      </g>
    </g>
    <g id="Group_145" data-name="Group 145" transform="translate(3.052 54.176)">
      <g id="Group_144" data-name="Group 144" transform="translate(0 0)">
        <path id="Path_251" data-name="Path 251" d="M65.912,232.057a1.633,1.633,0,0,1-1.461-.9l-1.8-3.61-5.07,10.141a1.633,1.633,0,0,1-2.921,0l-1.8-3.61-1.8,3.61a1.7,1.7,0,0,1-2.921,0l-5.07-10.141-1.8,3.61a1.633,1.633,0,0,1-1.461.9H28.037c3.36,5.287,9.412,10.309,16.983,16.7,2.125,1.794,4.386,3.7,6.76,5.761a1.635,1.635,0,0,0,2.14,0c2.374-2.058,4.635-3.967,6.76-5.761,7.57-6.389,13.622-11.411,16.983-16.7Z" transform="translate(-28.037 -227.545)" fill="#65539e"/>
      </g>
    </g>
  </g>
</svg>
