<svg xmlns="http://www.w3.org/2000/svg" width="45.676" height="58.138" viewBox="0 0 45.676 58.138">
  <g id="clipboard_2_" data-name="clipboard (2)" transform="translate(-47.037 0)">
    <g id="Group_190" data-name="Group 190" transform="translate(47.037 0)">
      <g id="Group_189" data-name="Group 189">
        <path id="Path_299" data-name="Path 299" d="M86.9,7.617H81.64V5.264c0-.761-.83-1.107-1.592-1.107H75.965A6.191,6.191,0,0,0,69.806,0a6.3,6.3,0,0,0-6.159,4.152H59.633c-.761,0-1.523.346-1.523,1.107V7.617H52.85a5.883,5.883,0,0,0-5.813,5.606V52.878c0,3.045,2.768,5.26,5.813,5.26H86.9c3.045,0,5.813-2.215,5.813-5.26V13.223A5.883,5.883,0,0,0,86.9,7.617ZM60.878,6.925h3.806A1.523,1.523,0,0,0,66,5.68a4.014,4.014,0,0,1,3.806-3.114A3.945,3.945,0,0,1,73.543,5.68a1.523,1.523,0,0,0,1.384,1.246h3.945v5.537H60.878ZM89.945,52.878c0,1.523-1.523,2.491-3.045,2.491H52.85c-1.523,0-3.045-.969-3.045-2.491V13.223a3.114,3.114,0,0,1,3.045-2.837h5.26v3.53a1.453,1.453,0,0,0,1.523,1.315H80.048a1.522,1.522,0,0,0,1.592-1.315v-3.53H86.9a3.114,3.114,0,0,1,3.045,2.837V52.878Z" transform="translate(-47.037 0)" fill="#65539e"/>
        <path id="Path_300" data-name="Path 300" d="M109.956,230.743a1.384,1.384,0,0,0-1.938-.069l-4.429,4.222-1.869-1.938a1.384,1.384,0,0,0-1.938-.069,1.453,1.453,0,0,0,0,2.007l2.837,2.907a1.245,1.245,0,0,0,.969.415,1.384,1.384,0,0,0,.969-.415l5.4-5.121a1.315,1.315,0,0,0,.08-1.858C110.011,230.8,109.984,230.768,109.956,230.743Z" transform="translate(-92.447 -199.803)" fill="#65539e"/>
        <path id="Path_301" data-name="Path 301" d="M215.85,256.034H199.932a1.384,1.384,0,1,0,0,2.768H215.85a1.384,1.384,0,1,0,0-2.768Z" transform="translate(-178.478 -222.118)" fill="#65539e"/>
        <path id="Path_302" data-name="Path 302" d="M109.956,147.151a1.384,1.384,0,0,0-1.938-.069l-4.429,4.222-1.869-1.938a1.384,1.384,0,0,0-1.938-.069,1.453,1.453,0,0,0,0,2.007l2.837,2.907a1.245,1.245,0,0,0,.969.415,1.384,1.384,0,0,0,.969-.415l5.4-5.121a1.315,1.315,0,0,0,.08-1.858C110.011,147.2,109.984,147.176,109.956,147.151Z" transform="translate(-92.447 -127.284)" fill="#65539e"/>
        <path id="Path_303" data-name="Path 303" d="M215.85,172.442H199.932a1.384,1.384,0,1,0,0,2.768H215.85a1.384,1.384,0,0,0,0-2.768Z" transform="translate(-178.478 -149.599)" fill="#65539e"/>
        <path id="Path_304" data-name="Path 304" d="M109.956,314.334a1.384,1.384,0,0,0-1.938-.069l-4.429,4.222-1.869-1.938a1.384,1.384,0,0,0-1.938-.069,1.453,1.453,0,0,0,0,2.007l2.837,2.907a1.245,1.245,0,0,0,.969.415,1.384,1.384,0,0,0,.969-.415l5.4-5.121a1.315,1.315,0,0,0,.08-1.858C110.011,314.386,109.984,314.36,109.956,314.334Z" transform="translate(-92.447 -272.322)" fill="#65539e"/>
        <path id="Path_305" data-name="Path 305" d="M215.85,339.626H199.932a1.384,1.384,0,1,0,0,2.768H215.85a1.384,1.384,0,1,0,0-2.768Z" transform="translate(-178.478 -294.637)" fill="#65539e"/>
      </g>
    </g>
  </g>
</svg>
