<svg xmlns="http://www.w3.org/2000/svg" width="49.852" height="60.897" viewBox="0 0 49.852 60.897">
  <g id="cake" transform="translate(-42.56)">
    <g id="Group_202" data-name="Group 202" transform="translate(42.56)">
      <g id="Group_201" data-name="Group 201">
        <path id="Path_330" data-name="Path 330" d="M197.429,16.608a5.538,5.538,0,0,0,4.747-8.387L197.429,0l-4.747,8.221a5.538,5.538,0,0,0,4.747,8.387Z" transform="translate(-172.517)" fill="#65539e"/>
        <path id="Path_331" data-name="Path 331" d="M84.08,154.869H70.24v-5.536H64.7v5.536H50.864a8.311,8.311,0,0,0-8.3,8.3v4.263a5.422,5.422,0,0,0,9.259,3.834l5.924-5.91,5.91,5.9a5.552,5.552,0,0,0,7.667,0l5.924-5.9,5.91,5.9a5.422,5.422,0,0,0,9.259-3.834v-4.249A8.352,8.352,0,0,0,84.08,154.869Z" transform="translate(-42.56 -129.957)" fill="#65539e"/>
        <path id="Path_332" data-name="Path 332" d="M80.191,321.056h0l-2.976-2.976-2.989,2.976a9.808,9.808,0,0,1-13.536,0l-2.976-2.976-2.989,2.976a9.385,9.385,0,0,1-6.74,2.81,9.557,9.557,0,0,1-5.425-1.7v12.775a2.776,2.776,0,0,0,2.768,2.768H89.616a2.776,2.776,0,0,0,2.768-2.768V322.163a9.53,9.53,0,0,1-12.193-1.107Z" transform="translate(-42.56 -276.809)" fill="#65539e"/>
      </g>
    </g>
  </g>
</svg>
