<svg xmlns="http://www.w3.org/2000/svg" width="52.027" height="52.027" viewBox="0 0 52.027 52.027">
  <g id="day-and-night" transform="translate(0 0)">
    <g id="Group_139" data-name="Group 139" transform="translate(0 21.444)">
      <g id="Group_138" data-name="Group 138">
        <g id="Group_137" data-name="Group 137">
          <path id="Path_246" data-name="Path 246" d="M15.539,241.614A15.532,15.532,0,0,1,11.5,211.084a1.524,1.524,0,0,1,1.745,2.181,12.34,12.34,0,0,0-1.435,5.8,12.447,12.447,0,0,0,15.74,12.047,1.524,1.524,0,0,1,1.745,2.181,15.507,15.507,0,0,1-13.754,8.318Z" transform="translate(0 -211.031)" fill="#65539e"/>
        </g>
      </g>
    </g>
    <g id="Group_140" data-name="Group 140" transform="translate(20.526 0)">
      <path id="Path_247" data-name="Path 247" d="M233.227,14.186l-2.362-3.39-.082-4.131a1.524,1.524,0,0,0-1.025-1.41l-3.9-1.352-2.49-3.3A1.524,1.524,0,0,0,221.7.066l-3.953,1.2L213.8.066a1.524,1.524,0,0,0-1.66.539l-2.49,3.3-3.9,1.352a1.524,1.524,0,0,0-1.025,1.41l-.082,4.131-2.362,3.391a1.524,1.524,0,0,0,0,1.742l2.362,3.39.082,4.131a1.524,1.524,0,0,0,1.025,1.41l3.9,1.352,2.49,3.3a1.524,1.524,0,0,0,1.66.539l3.953-1.2,3.953,1.2a1.523,1.523,0,0,0,1.66-.539l2.49-3.3,3.9-1.352a1.524,1.524,0,0,0,1.025-1.41l.082-4.131,2.362-3.391a1.524,1.524,0,0,0,0-1.742ZM217.751,24.711a9.653,9.653,0,1,1,9.653-9.653A9.664,9.664,0,0,1,217.751,24.711Z" transform="translate(-202 0)" fill="#65539e"/>
      <circle id="Ellipse_136" data-name="Ellipse 136" cx="6.605" cy="6.605" r="6.605" transform="translate(9.145 8.453)" fill="#65539e"/>
    </g>
    <g id="Group_141" data-name="Group 141" transform="translate(0 2.134)">
      <path id="Path_248" data-name="Path 248" d="M322.893,325.512l-4.065-4.065a1.524,1.524,0,0,0-2.156,0l-4.065,4.065a1.524,1.524,0,1,0,2.156,2.156l1.31-1.31a10.686,10.686,0,0,1-10.517,8.869h-2.032a1.524,1.524,0,0,0,0,3.048h2.032a13.737,13.737,0,0,0,13.629-12.16l1.552,1.552a1.524,1.524,0,0,0,2.155-2.156Z" transform="translate(-271.312 -290.516)" fill="#65539e"/>
      <path id="Path_249" data-name="Path 249" d="M19.815,21H17.782A13.737,13.737,0,0,0,4.153,33.16L2.6,31.608A1.524,1.524,0,1,0,.446,33.764l4.065,4.065a1.524,1.524,0,0,0,2.156,0l4.065-4.065a1.524,1.524,0,1,0-2.156-2.156l-1.31,1.31a10.686,10.686,0,0,1,10.517-8.869h2.032a1.524,1.524,0,0,0,0-3.048Z" transform="translate(0 -21)" fill="#65539e"/>
    </g>
  </g>
</svg>
