<svg xmlns="http://www.w3.org/2000/svg" width="51.57" height="51.57" viewBox="0 0 51.57 51.57">
  <path id="study" d="M40.747,25.395l7.8-7.779A10.318,10.318,0,1,0,33.956,3.023L26.2,10.784,15.957.588A2.015,2.015,0,0,0,13.1.6L.583,13.242a2.014,2.014,0,0,0,.01,2.845l10.17,10.129L5.12,31.86a2.015,2.015,0,0,0-.516.884L.074,49.016a2.014,2.014,0,0,0,2.491,2.478l16.272-4.622a2.014,2.014,0,0,0,.876-3.36L9.455,33.222l23.9-23.9,8.89,8.89-18.3,18.249a2.014,2.014,0,0,0,0,2.856l11.76,11.673a2.015,2.015,0,0,0,1.419.585h.009a2.014,2.014,0,0,0,1.423-.6L50.987,38.428a2.014,2.014,0,0,0-.01-2.845Zm-26.3,18.537L4.918,46.638l2.668-9.584ZM4.86,14.649l9.686-9.781,3.2,3.183-3.968,4.033a2.015,2.015,0,0,0,2.872,2.826L20.6,10.895l2.75,2.738-9.734,9.734ZM36.207,6.47l.6-.6a6.289,6.289,0,0,1,8.9,8.892l-.6.6Zm.913,40.236L28.228,37.88l9.667-9.641,2.718,2.707-3.868,3.9A2.014,2.014,0,0,0,39.6,37.68l3.863-3.891,3.244,3.231Z" transform="translate(0 -0.001)" fill="#65539e"/>
</svg>
