<svg xmlns="http://www.w3.org/2000/svg" width="38.153" height="49.62" viewBox="0 0 38.153 49.62">
  <g id="manager" transform="translate(-34.32)">
    <path id="Path_285" data-name="Path 285" d="M99.694,19.583A9.792,9.792,0,1,0,89.9,9.792,9.8,9.8,0,0,0,99.694,19.583Z" transform="translate(-46.296)" fill="#65539e"/>
    <path id="Path_286" data-name="Path 286" d="M66.537,141.123l-.016-.005c-1.275-.311-5.179-.858-5.179-.858a.868.868,0,0,0-1.07.533l-5.877,16.124a1.061,1.061,0,0,1-1.994,0l-5.877-16.124a.868.868,0,0,0-.815-.571c-.084,0-4.1.563-5.435.9-3.652.908-5.955,4.5-5.955,8.241v13.416a3.641,3.641,0,0,0,3.64,3.64H68.832a3.641,3.641,0,0,0,3.64-3.64V149.313A8.615,8.615,0,0,0,66.537,141.123Z" transform="translate(0 -116.794)" fill="#65539e"/>
    <path id="Path_287" data-name="Path 287" d="M138.073,136.7a1.249,1.249,0,0,0-.924-.384h-2.587a1.249,1.249,0,0,0-.924.384,1.2,1.2,0,0,0-.158,1.414l1.383,2.085-.647,5.462,1.275,3.392a.389.389,0,0,0,.731,0l1.275-3.392-.647-5.462,1.383-2.085A1.2,1.2,0,0,0,138.073,136.7Z" transform="translate(-82.459 -113.54)" fill="#65539e"/>
  </g>
</svg>
