<svg xmlns="http://www.w3.org/2000/svg" width="48.15" height="47.953" viewBox="0 0 48.15 47.953">
  <g id="settings" transform="translate(0 -0.114)">
    <g id="Group_159" data-name="Group 159" transform="translate(0 13.704)">
      <g id="Group_158" data-name="Group 158">
        <path id="Path_263" data-name="Path 263" d="M31.662,34.361a14.412,14.412,0,0,0-.092-3.484L34.209,29.7a17.381,17.381,0,0,0-3.186-7.155L28.382,23.72a14.46,14.46,0,0,0-2.528-2.4l1.035-2.7a17.459,17.459,0,0,0-7.312-2.809l-1.036,2.7a14.412,14.412,0,0,0-3.484.092l-1.169-2.626a17.446,17.446,0,0,0-7.148,3.2L7.9,21.794a14.435,14.435,0,0,0-2.4,2.528L2.812,23.29A17.148,17.148,0,0,0,.983,26.784,17.653,17.653,0,0,0,0,30.6l2.7,1.035a14.412,14.412,0,0,0,.092,3.484L.15,36.293a17.368,17.368,0,0,0,3.187,7.155l2.639-1.175a14.408,14.408,0,0,0,2.529,2.4l-1.035,2.7a17.46,17.46,0,0,0,7.312,2.809l1.036-2.7a14.456,14.456,0,0,0,3.484-.093l1.169,2.625a17.445,17.445,0,0,0,7.149-3.2L26.457,44.2a14.437,14.437,0,0,0,2.4-2.528L31.545,42.7a17.164,17.164,0,0,0,1.829-3.493,17.464,17.464,0,0,0,.986-3.816ZM24.493,35.8a7.833,7.833,0,1,1-4.508-10.119A7.834,7.834,0,0,1,24.493,35.8Z" transform="translate(0 -15.816)" fill="#65539e"/>
      </g>
    </g>
    <g id="Group_161" data-name="Group 161" transform="translate(27.611 0.114)">
      <g id="Group_160" data-name="Group 160">
        <path id="Path_264" data-name="Path 264" d="M50.564,10.743a8.424,8.424,0,0,0-.145-1.531l2.023-1.168A10.616,10.616,0,0,0,49.649,3.2L47.621,4.367A8.334,8.334,0,0,0,44.97,2.839V.5a10.351,10.351,0,0,0-5.594,0v2.34a8.359,8.359,0,0,0-2.651,1.528L34.7,3.2A10.639,10.639,0,0,0,31.9,8.044l2.023,1.168a8.086,8.086,0,0,0,0,3.062L31.9,13.443A10.635,10.635,0,0,0,34.7,18.291l2.028-1.171a8.343,8.343,0,0,0,2.651,1.528v2.34a10.351,10.351,0,0,0,5.594,0v-2.34A8.35,8.35,0,0,0,47.62,17.12l2.028,1.171a10.616,10.616,0,0,0,2.793-4.848l-2.023-1.168A8.364,8.364,0,0,0,50.564,10.743ZM42.174,14.66a3.917,3.917,0,1,1,3.915-3.917A3.917,3.917,0,0,1,42.174,14.66Z" transform="translate(-31.903 -0.114)" fill="#65539e"/>
      </g>
    </g>
  </g>
</svg>
