<svg id="clock-circular-outline" xmlns="http://www.w3.org/2000/svg" width="56.093" height="56.093" viewBox="0 0 56.093 56.093">
  <g id="Group_199" data-name="Group 199">
    <path id="Path_327" data-name="Path 327" d="M28.047,0A28.047,28.047,0,1,0,56.093,28.047,28.078,28.078,0,0,0,28.047,0Zm0,50.125A22.079,22.079,0,1,1,50.126,28.047,22.1,22.1,0,0,1,28.047,50.125Z" fill="#65539e"/>
    <path id="Path_328" data-name="Path 328" d="M61.289,34.294h-12.6V19.139a2.309,2.309,0,1,0-4.619,0V36.6a2.309,2.309,0,0,0,2.309,2.309H61.289a2.309,2.309,0,1,0,0-4.619Z" transform="translate(-18.625 -7.114)" fill="#65539e"/>
  </g>
</svg>
