<svg id="clipboard_1_" data-name="clipboard (1)" xmlns="http://www.w3.org/2000/svg" width="58.807" height="58.807" viewBox="0 0 58.807 58.807">
  <path id="Path_306" data-name="Path 306" d="M37.98,54.456H6.126A6.133,6.133,0,0,1,0,48.33V9.126A6.133,6.133,0,0,1,6.126,3h4.9a1.225,1.225,0,1,1,0,2.45h-4.9A3.68,3.68,0,0,0,2.45,9.126v39.2a3.68,3.68,0,0,0,3.675,3.675H37.98a3.68,3.68,0,0,0,3.675-3.675V9.126A3.68,3.68,0,0,0,37.98,5.45h-4.9a1.225,1.225,0,1,1,0-2.45h4.9a6.133,6.133,0,0,1,6.126,6.126v39.2A6.133,6.133,0,0,1,37.98,54.456Z" transform="translate(0 4.351)" fill="#65539e"/>
  <path id="Path_307" data-name="Path 307" d="M24.828,14.7H7.675A3.68,3.68,0,0,1,4,11.026v-4.9A1.226,1.226,0,0,1,5.225,4.9h5.023a6.127,6.127,0,0,1,12.006,0h5.023A1.226,1.226,0,0,1,28.5,6.126v4.9A3.68,3.68,0,0,1,24.828,14.7ZM6.45,7.351v3.675a1.227,1.227,0,0,0,1.225,1.225H24.828a1.227,1.227,0,0,0,1.225-1.225V7.351h-4.9a1.226,1.226,0,0,1-1.225-1.225,3.675,3.675,0,1,0-7.351,0,1.226,1.226,0,0,1-1.225,1.225Z" transform="translate(5.801)" fill="#65539e"/>
  <path id="Path_308" data-name="Path 308" d="M24.9,42.754a1.227,1.227,0,0,1-1.1-.676l-3.158-6.317A6.152,6.152,0,0,1,20,33.022V10.9a4.9,4.9,0,1,1,9.8,0V33.022a6.152,6.152,0,0,1-.647,2.739L26,42.078a1.227,1.227,0,0,1-1.1.676Zm0-34.3a2.453,2.453,0,0,0-2.45,2.45V33.022a3.719,3.719,0,0,0,.387,1.644L24.9,38.79l2.063-4.124a3.719,3.719,0,0,0,.387-1.644V10.9A2.453,2.453,0,0,0,24.9,8.45Zm3.158,26.762h.025Z" transform="translate(29.006 8.702)" fill="#65539e"/>
  <path id="Path_309" data-name="Path 309" d="M31.178,11.45H4.225a1.225,1.225,0,0,1,0-2.45H31.178a1.225,1.225,0,0,1,0,2.45Z" transform="translate(4.351 13.053)" fill="#65539e"/>
  <path id="Path_310" data-name="Path 310" d="M31.178,14.45H4.225a1.225,1.225,0,0,1,0-2.45H31.178a1.225,1.225,0,0,1,0,2.45Z" transform="translate(4.351 17.404)" fill="#65539e"/>
  <path id="Path_311" data-name="Path 311" d="M31.178,17.45H4.225a1.225,1.225,0,0,1,0-2.45H31.178a1.225,1.225,0,0,1,0,2.45Z" transform="translate(4.351 21.754)" fill="#65539e"/>
  <path id="Path_312" data-name="Path 312" d="M31.178,20.45H4.225a1.225,1.225,0,0,1,0-2.45H31.178a1.225,1.225,0,0,1,0,2.45Z" transform="translate(4.351 26.105)" fill="#65539e"/>
</svg>
