<svg xmlns="http://www.w3.org/2000/svg" width="42.822" height="51.491" viewBox="0 0 42.822 51.491">
  <g id="reading-book" transform="translate(-41 0.51)">
    <ellipse id="Ellipse_137" data-name="Ellipse 137" cx="8" cy="9" rx="8" ry="9" transform="translate(54.411 -0.509)" fill="#65539e"/>
    <path id="Path_258" data-name="Path 258" d="M157.017,181.515a11.429,11.429,0,0,1-12.44,0,17.411,17.411,0,0,0-5.416,3.308l11.636,4.363,11.636-4.363A17.409,17.409,0,0,0,157.017,181.515Z" transform="translate(-88.385 -163.446)" fill="#65539e"/>
    <path id="Path_259" data-name="Path 259" d="M413.49,310h-1A1.494,1.494,0,0,0,411,311.494v3.983a1.494,1.494,0,0,0,1.494,1.494h1a3.486,3.486,0,0,0,0-6.971Z" transform="translate(-333.153 -279.135)" fill="#65539e"/>
    <path id="Path_260" data-name="Path 260" d="M81.643,231.87A1.494,1.494,0,0,0,81,233.1v3.326h.5a4.487,4.487,0,0,1,4.481,4.481v3.983A4.487,4.487,0,0,1,81.5,249.37H81v3.147a1.494,1.494,0,0,0,.969,1.4l14.965,5.612v-22.61L83.018,231.7A1.493,1.493,0,0,0,81.643,231.87Z" transform="translate(-36.017 -208.546)" fill="#65539e"/>
    <path id="Path_261" data-name="Path 261" d="M281.955,244.888V240.9a4.486,4.486,0,0,1,4.481-4.481h.5V233.1a1.494,1.494,0,0,0-2.018-1.4L271,236.917v22.61l14.965-5.612a1.494,1.494,0,0,0,.969-1.4V249.37h-.5A4.487,4.487,0,0,1,281.955,244.888Z" transform="translate(-207.095 -208.546)" fill="#65539e"/>
    <path id="Path_262" data-name="Path 262" d="M46.975,315.477v-3.983A1.494,1.494,0,0,0,45.481,310h-1a3.486,3.486,0,1,0,0,6.971h1A1.494,1.494,0,0,0,46.975,315.477Z" transform="translate(0 -279.135)" fill="#65539e"/>
  </g>
</svg>
