<svg xmlns="http://www.w3.org/2000/svg" width="56.71" height="51.371" viewBox="0 0 56.71 51.371">
  <g id="add-friend" transform="translate(0 -0.501)">
    <path id="Path_231" data-name="Path 231" d="M301.543,241.5a12.339,12.339,0,1,0,12.339,12.339A12.352,12.352,0,0,0,301.543,241.5Zm3.559,14h-1.9v1.9a1.661,1.661,0,0,1-3.323,0v-1.9h-1.9a1.661,1.661,0,1,1,0-3.323h1.9v-1.9a1.661,1.661,0,0,1,3.323,0v1.9h1.9a1.661,1.661,0,1,1,0,3.323Zm0,0" transform="translate(-257.172 -214.306)" fill="#65539e"/>
    <path id="Path_232" data-name="Path 232" d="M60.539,25.179A12.339,12.339,0,1,0,48.2,12.84,12.353,12.353,0,0,0,60.539,25.179Zm0,0" transform="translate(-42.861 0)" fill="#65539e"/>
    <path id="Path_233" data-name="Path 233" d="M32.281,225.695a17.827,17.827,0,0,0-4.657-4.659,15.631,15.631,0,0,1-19.895,0A17.673,17.673,0,0,0,0,235.641v6.229a6.117,6.117,0,0,0,6.11,6.11H29.244a6.082,6.082,0,0,0,3.911-1.42,15.632,15.632,0,0,1-.874-20.865Zm0,0" transform="translate(0 -196.108)" fill="#65539e"/>
  </g>
</svg>
