<svg xmlns="http://www.w3.org/2000/svg" width="55.112" height="37.896" viewBox="0 0 55.112 37.896">
  <g id="list-text" transform="translate(-0.001 -80)">
    <g id="Group_178" data-name="Group 178" transform="translate(10.35 80)">
      <g id="Group_177" data-name="Group 177">
        <path id="Path_293" data-name="Path 293" d="M134.056,80H99.623a3.443,3.443,0,0,0,0,6.887h34.433a3.443,3.443,0,1,0,0-6.887Z" transform="translate(-96.18 -80)" fill="#65539e"/>
      </g>
    </g>
    <g id="Group_180" data-name="Group 180" transform="translate(0.001 80.015)">
      <g id="Group_179" data-name="Group 179" transform="translate(0)">
        <path id="Path_294" data-name="Path 294" d="M6.907,83.564a3.443,3.443,0,0,0-6.887,0,2.931,2.931,0,0,0,0,.671,3.1,3.1,0,0,0,.189.654,4,4,0,0,0,.327.585,3.15,3.15,0,0,0,.43.534,3.048,3.048,0,0,0,.516.413,2.805,2.805,0,0,0,.585.327,2.842,2.842,0,0,0,.723.258,3.018,3.018,0,0,0,.671,0,3.443,3.443,0,0,0,2.428-1,3.15,3.15,0,0,0,.43-.534,4,4,0,0,0,.327-.585,3.2,3.2,0,0,0,.258-.654A2.931,2.931,0,0,0,6.907,83.564Z" transform="translate(-0.001 -80.135)" fill="#65539e"/>
      </g>
    </g>
    <g id="Group_182" data-name="Group 182" transform="translate(0.02 95.509)">
      <g id="Group_181" data-name="Group 181">
        <path id="Path_295" data-name="Path 295" d="M7.067,227.564a2.944,2.944,0,0,0,0-.671,2.79,2.79,0,0,0-.258-.637,3.442,3.442,0,0,0-.327-.6,2.479,2.479,0,0,0-.43-.516A3.443,3.443,0,0,0,.18,227.564a3.434,3.434,0,0,0,.568,1.911,3.307,3.307,0,0,0,.448.516,2.514,2.514,0,0,0,.516.43,2.794,2.794,0,0,0,.585.327,2.928,2.928,0,0,0,.654.189,2.856,2.856,0,0,0,.671.069,2.932,2.932,0,0,0,.671,0,2.794,2.794,0,0,0,.637-.189,2.874,2.874,0,0,0,.6-.327,2.514,2.514,0,0,0,.516-.43,2.514,2.514,0,0,0,.43-.517,2.768,2.768,0,0,0,.327-.585,2.913,2.913,0,0,0,.258-.723A2.849,2.849,0,0,0,7.067,227.564Z" transform="translate(-0.18 -224.135)" fill="#65539e"/>
      </g>
    </g>
    <g id="Group_184" data-name="Group 184" transform="translate(0.02 111.004)">
      <g id="Group_183" data-name="Group 183">
        <path id="Path_296" data-name="Path 296" d="M7.065,371.564a2.956,2.956,0,0,0,0-.671,2.93,2.93,0,0,0-.258-.654,4,4,0,0,0-.327-.585,2.514,2.514,0,0,0-.43-.516,3.443,3.443,0,0,0-4.855,0,2.514,2.514,0,0,0-.43.516,4,4,0,0,0-.327.585,2.821,2.821,0,0,0-.189.654,2.959,2.959,0,0,0-.069.671,3.444,3.444,0,0,0,1.016,2.428,2.515,2.515,0,0,0,.516.43,2.791,2.791,0,0,0,.585.327,2.924,2.924,0,0,0,.654.189,2.856,2.856,0,0,0,.671.069,2.927,2.927,0,0,0,.671,0,2.8,2.8,0,0,0,.637-.189,2.876,2.876,0,0,0,.6-.327,2.512,2.512,0,0,0,.516-.43,2.514,2.514,0,0,0,.43-.516,2.756,2.756,0,0,0,.327-.585,2.923,2.923,0,0,0,.258-.723A2.849,2.849,0,0,0,7.065,371.564Z" transform="translate(-0.178 -368.135)" fill="#65539e"/>
      </g>
    </g>
    <g id="Group_186" data-name="Group 186" transform="translate(10.35 95.495)">
      <g id="Group_185" data-name="Group 185" transform="translate(0 0)">
        <path id="Path_297" data-name="Path 297" d="M137.5,224H99.623a3.443,3.443,0,0,0,0,6.887H137.5a3.443,3.443,0,0,0,0-6.887Z" transform="translate(-96.18 -224)" fill="#65539e"/>
      </g>
    </g>
    <g id="Group_188" data-name="Group 188" transform="translate(10.35 110.99)">
      <g id="Group_187" data-name="Group 187" transform="translate(0 0)">
        <path id="Path_298" data-name="Path 298" d="M122,368H99.623a3.443,3.443,0,0,0,0,6.887H122A3.443,3.443,0,1,0,122,368Z" transform="translate(-96.18 -368)" fill="#65539e"/>
      </g>
    </g>
  </g>
</svg>
