<svg xmlns="http://www.w3.org/2000/svg" width="68" height="80" viewBox="0 0 68 80">
  <g id="Resim_ekle" data-name="Resim ekle" transform="translate(-156 -652)">
    <g id="photo" transform="translate(157 633.2)">
      <g id="Group_85" data-name="Group 85" transform="translate(0 18.8)">
        <path id="Path_134" data-name="Path 134" d="M7.558,18.8H45.772a7.575,7.575,0,0,1,7.558,7.558V65.676a7.575,7.575,0,0,1-7.558,7.558H7.558A7.575,7.575,0,0,1,0,65.676v-39.4A7.557,7.557,0,0,1,7.558,18.8Z" transform="translate(0 -18.8)" fill="#4a566e"/>
        <path id="Path_135" data-name="Path 135" d="M24.712,126.85,13.5,115.64,0,129.143v8.917a7.575,7.575,0,0,0,7.558,7.558H45.772a7.575,7.575,0,0,0,7.558-7.558V123.538L40.676,110.8Z" transform="translate(0 -91.269)" fill="#00b594"/>
        <circle id="Ellipse_116" data-name="Ellipse 116" cx="4.755" cy="4.755" r="4.755" transform="translate(19.616 13.247)" fill="#ffcc03"/>
        <circle id="Ellipse_117" data-name="Ellipse 117" cx="12.228" cy="12.228" r="12.228" transform="translate(41.101 33.119)" fill="#fff"/>
      </g>
      <g id="Group_86" data-name="Group 86" transform="translate(45.772 56.674)">
        <path id="Path_136" data-name="Path 136" d="M217.383,227.567a1.794,1.794,0,0,1-1.783-1.783A1.741,1.741,0,0,1,217.383,224h11.549a1.783,1.783,0,1,1,0,3.567Z" transform="translate(-215.6 -218.31)" fill="#00b594"/>
        <path id="Path_137" data-name="Path 137" d="M246.367,210.447a1.783,1.783,0,1,1-3.567,0V198.983a1.783,1.783,0,1,1,3.567,0Z" transform="translate(-237.025 -197.2)" fill="#00b594"/>
      </g>
    </g>
    <text id="Resim_Ekle-2" data-name="Resim Ekle" transform="translate(156 727)" fill="#00b594" font-size="13" font-family="Nunito-SemiBold, Nunito" font-weight="600" letter-spacing="0.03em"><tspan x="0" y="0">Resim Ekle</tspan></text>
  </g>
</svg>
