<svg xmlns="http://www.w3.org/2000/svg" width="22.806" height="22.806" viewBox="0 0 22.806 22.806">
  <g id="Filter_İcon" data-name="Filter İcon" transform="translate(-303.194 -42)">
    <g id="filter" transform="translate(303.194 42)">
      <path id="Path_95" data-name="Path 95" d="M18.726,0H4.08A4.085,4.085,0,0,0,0,4.08V18.726a4.085,4.085,0,0,0,4.08,4.08H18.726a4.085,4.085,0,0,0,4.08-4.08V4.08A4.085,4.085,0,0,0,18.726,0ZM21.47,18.726a2.747,2.747,0,0,1-2.744,2.744H4.08a2.747,2.747,0,0,1-2.744-2.744V4.08A2.747,2.747,0,0,1,4.08,1.336H18.726A2.747,2.747,0,0,1,21.47,4.08Z" transform="translate(0 0)" fill="#fff"/>
      <path id="Path_96" data-name="Path 96" d="M80.68,81.765H70.5a2.1,2.1,0,0,0-3.98,0H64.935a.668.668,0,1,0,0,1.336h1.589a2.1,2.1,0,0,0,3.98,0H80.68a.668.668,0,1,0,0-1.336ZM68.513,83.2a.763.763,0,1,1,.763-.763A.764.764,0,0,1,68.513,83.2Z" transform="translate(-61.404 -76.756)" fill="#fff"/>
      <path id="Path_97" data-name="Path 97" d="M80.68,210.3H79.091a2.1,2.1,0,0,0-3.98,0H64.935a.668.668,0,0,0,0,1.336H75.112a2.1,2.1,0,0,0,3.98,0H80.68a.668.668,0,1,0,0-1.336ZM77.1,211.73a.763.763,0,1,1,.763-.763A.764.764,0,0,1,77.1,211.73Z" transform="translate(-61.404 -199.563)" fill="#fff"/>
      <path id="Path_98" data-name="Path 98" d="M80.68,338.831H73.366a2.1,2.1,0,0,0-3.98,0H64.935a.668.668,0,0,0,0,1.336h4.451a2.1,2.1,0,0,0,3.98,0H80.68a.668.668,0,1,0,0-1.336Zm-9.3,1.431a.763.763,0,1,1,.763-.763A.764.764,0,0,1,71.376,340.263Z" transform="translate(-61.404 -322.371)" fill="#fff"/>
    </g>
  </g>
</svg>
