<svg xmlns="http://www.w3.org/2000/svg" width="29.529" height="25.847" viewBox="0 0 29.529 25.847">
  <g id="gallery" transform="translate(-41 -67.798)">
    <path id="Path_49" data-name="Path 49" d="M68.014,70.051,48.468,67.816a2.838,2.838,0,0,0-3.14,2.487l-.34,3H43.851A2.875,2.875,0,0,0,41,76.172v14.65a2.84,2.84,0,0,0,2.851,2.822H63.516a2.828,2.828,0,0,0,2.836-2.822V90.24a2.712,2.712,0,0,0,1.434-.59,2.821,2.821,0,0,0,1.065-1.91L70.51,73.192a2.834,2.834,0,0,0-2.5-3.14ZM64.978,90.822a1.452,1.452,0,0,1-1.462,1.448H43.851a1.464,1.464,0,0,1-1.476-1.448V88.163L48,84.066a1.836,1.836,0,0,1,2.273.1l3.939,3.439a3.191,3.191,0,0,0,3.72.347l7.043-4.135Zm0-8.6L57.239,86.77a1.817,1.817,0,0,1-2.119-.2l-3.937-3.439a3.185,3.185,0,0,0-3.991-.178l-4.818,3.506V76.172a1.5,1.5,0,0,1,1.476-1.49H63.516a1.488,1.488,0,0,1,1.462,1.49Zm4.167-9.192L67.486,87.585a1.456,1.456,0,0,1-.55.986,1.482,1.482,0,0,1-.585.277V76.172a2.863,2.863,0,0,0-2.836-2.864H46.371l.323-2.851a1.456,1.456,0,0,1,1.618-1.279L67.86,71.415a1.462,1.462,0,0,1,1.285,1.619Z" transform="translate(0)" fill="#fff"/>
    <path id="Path_50" data-name="Path 50" d="M219.367,200.537a2.98,2.98,0,1,0,2.98,2.979A2.98,2.98,0,0,0,219.367,200.537Zm0,4.585a1.605,1.605,0,1,1,1.605-1.606A1.605,1.605,0,0,1,219.367,205.122Z" transform="translate(-163.337 -123.619)" fill="#fff"/>
  </g>
</svg>
