<svg id="call_1_" data-name="call (1)" xmlns="http://www.w3.org/2000/svg" width="22.859" height="22.859" viewBox="0 0 22.859 22.859">
  <g id="Group_164" data-name="Group 164">
    <path id="Path_267" data-name="Path 267" d="M21.025,15a12.979,12.979,0,0,1-4.076-.649,1.863,1.863,0,0,0-1.812.382l-2.57,1.94a14.2,14.2,0,0,1-6.386-6.385l1.883-2.5a1.848,1.848,0,0,0,.455-1.872,13,13,0,0,1-.652-4.083A1.836,1.836,0,0,0,6.032,0h-4.2A1.836,1.836,0,0,0,0,1.834,21.049,21.049,0,0,0,21.025,22.859a1.836,1.836,0,0,0,1.834-1.834V16.839A1.836,1.836,0,0,0,21.025,15Z" fill="#fff"/>
  </g>
</svg>