<svg xmlns="http://www.w3.org/2000/svg" width="22.001" height="21.976" viewBox="0 0 22.001 21.976">
  <g id="customer-service" transform="translate(0 -0.027)">
    <path id="Path_160" data-name="Path 160" d="M11.938,16.333a.688.688,0,0,1-.688-.688V9.688a.688.688,0,0,1,1.375,0v5.958A.688.688,0,0,1,11.938,16.333Z" transform="translate(-0.937 -0.748)" fill="#fff"/>
    <path id="Path_161" data-name="Path 161" d="M8.688,14.667A.688.688,0,0,1,8,13.979V11.688a.688.688,0,1,1,1.375,0v2.292A.688.688,0,0,1,8.688,14.667Z" transform="translate(-0.667 -0.914)" fill="#fff"/>
    <path id="Path_162" data-name="Path 162" d="M15.188,14.667a.688.688,0,0,1-.688-.688V11.688a.688.688,0,1,1,1.375,0v2.292A.688.688,0,0,1,15.188,14.667Z" transform="translate(-1.208 -0.914)" fill="#fff"/>
    <path id="Path_163" data-name="Path 163" d="M3.993,9.169a1.7,1.7,0,0,1-1.2-.5l-2.3-2.3A1.667,1.667,0,0,1,0,5.114,1.758,1.758,0,0,1,.616,3.851,16.033,16.033,0,0,1,21.4,3.846,1.747,1.747,0,0,1,22,5.092a1.681,1.681,0,0,1-.489,1.26L19.281,8.614a1.706,1.706,0,0,1-2.085.265L14.864,7.485a1.694,1.694,0,0,1-.809-1.7l.208-1.418a12.17,12.17,0,0,0-6.436-.016l.2,1.465a1.708,1.708,0,0,1-.815,1.7L4.876,8.923a1.7,1.7,0,0,1-.883.246Z" transform="translate(0)" fill="#fff"/>
    <circle id="Ellipse_122" data-name="Ellipse 122" cx="1.833" cy="1.833" r="1.833" transform="translate(1.833 13.752)" fill="#fff"/>
    <path id="Path_164" data-name="Path 164" d="M4.813,20H2.521A2.523,2.523,0,0,0,0,22.521v.458a.688.688,0,0,0,.688.688H6.646a.688.688,0,0,0,.688-.688v-.458A2.523,2.523,0,0,0,4.813,20Z" transform="translate(0 -1.664)" fill="#fff"/>
    <circle id="Ellipse_123" data-name="Ellipse 123" cx="1.833" cy="1.833" r="1.833" transform="translate(16.5 13.752)" fill="#fff"/>
    <path id="Path_165" data-name="Path 165" d="M20.813,20H18.521A2.523,2.523,0,0,0,16,22.521v.458a.688.688,0,0,0,.688.688h5.958a.688.688,0,0,0,.688-.688v-.458A2.523,2.523,0,0,0,20.813,20Z" transform="translate(-1.333 -1.664)" fill="#fff"/>
  </g>
</svg>
