<svg xmlns="http://www.w3.org/2000/svg" width="21.165" height="21.154" viewBox="0 0 21.165 21.154">
  <g id="call" transform="translate(0 -0.124)">
    <path id="Path_120" data-name="Path 120" d="M14.563,158.447l-1.621-1.621a1.652,1.652,0,0,0-2.336,0l-.3.3a1.154,1.154,0,0,1-.859.338h0c-1.3,0-3.139-1.491-3.792-3.067a1.613,1.613,0,0,1,.126-1.8l.3-.3a1.652,1.652,0,0,0,0-2.338L4.46,148.342a1.652,1.652,0,0,0-2.335,0l-.811.811c-1.461,1.461-1.712,3.6-.708,6.023a14.071,14.071,0,0,0,4.113,5.294,9.653,9.653,0,0,0,5.775,2.435h0a4.443,4.443,0,0,0,3.258-1.313l.81-.811a1.652,1.652,0,0,0,0-2.336Z" transform="translate(0 -141.628)" fill="#65539e"/>
    <path id="Path_121" data-name="Path 121" d="M323.274,99.073a1.518,1.518,0,1,0-1.518-1.518A1.52,1.52,0,0,0,323.274,99.073Z" transform="translate(-308.455 -91.948)" fill="#fff"/>
    <path id="Path_122" data-name="Path 122" d="M276.017,229.567h-1.461a3.036,3.036,0,0,0-2.873,2.091,6.331,6.331,0,0,0,7.2-.018A3.037,3.037,0,0,0,276.017,229.567Z" transform="translate(-260.452 -219.958)" fill="#65539e"/>
    <path id="Path_123" data-name="Path 123" d="M208.035,9.236a4.221,4.221,0,0,1,2.576-.867h1.461a4.221,4.221,0,0,1,2.576.867,4.3,4.3,0,0,1,1.284,1.593,6.345,6.345,0,1,0-9.192.023,4.3,4.3,0,0,1,1.295-1.616Zm3.29-6.387a2.758,2.758,0,1,1-2.758,2.758A2.761,2.761,0,0,1,211.325,2.849Z" transform="translate(-196.506 0)" fill="#65539e"/>
  </g>
</svg>
