<svg xmlns="http://www.w3.org/2000/svg" width="67" height="78" viewBox="0 0 67 78">
  <g id="Video" transform="translate(-284 -654)">
    <g id="video-camera_1_" data-name="video-camera (1)" transform="translate(284 623)">
      <path id="Path_138" data-name="Path 138" d="M376.283,258.336a1.781,1.781,0,0,1-.787-.183L361,251.022a1.783,1.783,0,0,1-1-1.6v-9.508a1.783,1.783,0,0,1,1-1.6l14.5-7.131a1.783,1.783,0,0,1,2.57,1.6v23.77a1.783,1.783,0,0,1-1.783,1.783Z" transform="translate(-317.213 -176.23)" fill="#0052be"/>
      <g id="Group_87" data-name="Group 87" transform="translate(42.787 68.438)">
        <path id="Path_139" data-name="Path 139" d="M360,346v4.754a1.783,1.783,0,0,0,1,1.6l14.5,7.131a1.783,1.783,0,0,0,2.57-1.6V346Z" transform="translate(-360 -346)" fill="#00337a"/>
      </g>
      <path id="Path_140" data-name="Path 140" d="M39.815,243.09H6.537A6.544,6.544,0,0,1,0,236.553V217.537A6.544,6.544,0,0,1,6.537,211H39.815a6.544,6.544,0,0,1,6.537,6.537v19.016A6.544,6.544,0,0,1,39.815,243.09Z" transform="translate(0 -158.607)" fill="#2681ff"/>
      <g id="Group_88" data-name="Group 88" transform="translate(0 68.438)">
        <path id="Path_141" data-name="Path 141" d="M0,346v9.508a6.544,6.544,0,0,0,6.537,6.537H39.815a6.544,6.544,0,0,0,6.537-6.537V346Z" transform="translate(0 -346)" fill="#0052be"/>
      </g>
      <path id="Path_142" data-name="Path 142" d="M212.356,283.479H199.283A1.783,1.783,0,0,1,197.5,281.7v-8.914A1.783,1.783,0,0,1,199.283,271h13.074a1.783,1.783,0,0,1,1.783,1.783V281.7A1.783,1.783,0,0,1,212.356,283.479Z" transform="translate(-174.027 -211.476)" fill="#bceaf9"/>
      <path id="Path_143" data-name="Path 143" d="M62.6,394.566h-8.32a1.783,1.783,0,0,1,0-3.566H62.6a1.783,1.783,0,0,1,0,3.566Z" transform="translate(-46.26 -317.213)" fill="#00337a"/>
      <path id="Path_144" data-name="Path 144" d="M62.6,334.566h-8.32a1.783,1.783,0,0,1,0-3.566H62.6a1.783,1.783,0,0,1,0,3.566Z" transform="translate(-46.26 -264.345)" fill="#0052be"/>
      <g id="Group_89" data-name="Group 89" transform="translate(6.24 68.438)">
        <path id="Path_145" data-name="Path 145" d="M54.283,347.783H62.6A1.783,1.783,0,0,0,64.385,346H52.5A1.783,1.783,0,0,0,54.283,347.783Z" transform="translate(-52.5 -346)" fill="#00337a"/>
      </g>
      <g id="Group_91" data-name="Group 91" transform="translate(21.393 31)">
        <ellipse id="Ellipse_118" data-name="Ellipse 118" cx="11" cy="10.5" rx="11" ry="10.5" transform="translate(1.607 1.483)" fill="#2681ff"/>
        <path id="Path_146" data-name="Path 146" d="M285,46V67.393A10.7,10.7,0,0,0,285,46Z" transform="translate(-272.521 -44.217)" fill="#0052be"/>
        <path id="Path_147" data-name="Path 147" d="M192.479,55.959a12.479,12.479,0,1,1,12.479-12.479A12.494,12.494,0,0,1,192.479,55.959Zm0-21.393a8.914,8.914,0,1,0,8.914,8.914A8.924,8.924,0,0,0,192.479,34.566Z" transform="translate(-180 -31)" fill="#0052be"/>
        <circle id="Ellipse_119" data-name="Ellipse 119" cx="3.5" cy="3.5" r="3.5" transform="translate(9.607 8.483)" fill="#bceaf9"/>
        <path id="Path_148" data-name="Path 148" d="M285,106v7.131A3.566,3.566,0,1,0,285,106Z" transform="translate(-272.521 -97.086)" fill="#8bb9ff"/>
        <path id="Path_149" data-name="Path 149" d="M245.348,101.7a5.348,5.348,0,1,1,5.348-5.348A5.354,5.354,0,0,1,245.348,101.7Zm0-7.131a1.783,1.783,0,1,0,1.783,1.783A1.785,1.785,0,0,0,245.348,94.566Z" transform="translate(-232.869 -83.869)" fill="#0052be"/>
        <g id="Group_90" data-name="Group 90" transform="translate(12.479)">
          <path id="Path_150" data-name="Path 150" d="M285,91v3.566a1.783,1.783,0,1,1,0,3.566V101.7A5.348,5.348,0,1,0,285,91Z" transform="translate(-285 -83.869)" fill="#00337a"/>
          <path id="Path_151" data-name="Path 151" d="M285,31v3.566a8.914,8.914,0,1,1,0,17.828v3.566A12.479,12.479,0,1,0,285,31Z" transform="translate(-285 -31)" fill="#00337a"/>
        </g>
      </g>
      <g id="Group_93" data-name="Group 93" transform="translate(0 31)">
        <circle id="Ellipse_120" data-name="Ellipse 120" cx="10.5" cy="10.5" r="10.5" transform="translate(2 1.483)" fill="#2681ff"/>
        <path id="Path_152" data-name="Path 152" d="M105,46V67.393A10.7,10.7,0,0,0,105,46Z" transform="translate(-92.521 -44.217)" fill="#0052be"/>
        <path id="Path_153" data-name="Path 153" d="M12.479,55.959A12.479,12.479,0,1,1,24.959,43.479,12.494,12.494,0,0,1,12.479,55.959Zm0-21.393a8.914,8.914,0,1,0,8.914,8.914A8.924,8.924,0,0,0,12.479,34.566Z" transform="translate(0 -31)" fill="#0052be"/>
        <circle id="Ellipse_121" data-name="Ellipse 121" cx="3.5" cy="3.5" r="3.5" transform="translate(9 8.483)" fill="#bceaf9"/>
        <path id="Path_154" data-name="Path 154" d="M105,106v7.131A3.566,3.566,0,1,0,105,106Z" transform="translate(-92.521 -97.086)" fill="#8bb9ff"/>
        <path id="Path_155" data-name="Path 155" d="M65.348,101.7A5.348,5.348,0,1,1,70.7,96.348,5.354,5.354,0,0,1,65.348,101.7Zm0-7.131a1.783,1.783,0,1,0,1.783,1.783A1.785,1.785,0,0,0,65.348,94.566Z" transform="translate(-52.869 -83.869)" fill="#0052be"/>
        <g id="Group_92" data-name="Group 92" transform="translate(12.479)">
          <path id="Path_156" data-name="Path 156" d="M105,91v3.566a1.783,1.783,0,0,1,0,3.566V101.7A5.348,5.348,0,0,0,105,91Z" transform="translate(-105 -83.869)" fill="#00337a"/>
          <path id="Path_157" data-name="Path 157" d="M105,31v3.566a8.914,8.914,0,0,1,0,17.828v3.566A12.479,12.479,0,0,0,105,31Z" transform="translate(-105 -31)" fill="#00337a"/>
        </g>
      </g>
      <g id="Group_94" data-name="Group 94" transform="translate(23.473 68.438)">
        <path id="Path_158" data-name="Path 158" d="M197.5,346v1.783a1.783,1.783,0,0,0,1.783,1.783h13.074a1.783,1.783,0,0,0,1.783-1.783V346Z" transform="translate(-197.5 -346)" fill="#8bb9ff"/>
      </g>
    </g>
    <text id="Video_Ekle" data-name="Video Ekle" transform="translate(284 727)" fill="#2681ff" font-size="13" font-family="Nunito-SemiBold, Nunito" font-weight="600" letter-spacing="0.03em"><tspan x="0" y="0">Video Ekle</tspan></text>
  </g>
</svg>
