<svg xmlns="http://www.w3.org/2000/svg" width="22.279" height="19.581" viewBox="0 0 22.279 19.581">
  <g id="video-camera" transform="translate(0 -31)">
    <path id="Path_108" data-name="Path 108" d="M150,265.633l5.746-3.831L150,257.972Zm1.305-5.222,2.087,1.391-2.087,1.391Z" transform="translate(-143.473 -217.095)" fill="#fff"/>
    <path id="Path_109" data-name="Path 109" d="M61.958,91a1.958,1.958,0,1,0,1.958,1.958A1.96,1.96,0,0,0,61.958,91Zm0,2.611a.653.653,0,1,1,.653-.653A.653.653,0,0,1,61.958,93.611Z" transform="translate(-57.389 -57.389)" fill="#fff"/>
    <path id="Path_110" data-name="Path 110" d="M241.958,94.916A1.958,1.958,0,1,0,240,92.958,1.96,1.96,0,0,0,241.958,94.916Zm0-2.611a.653.653,0,1,1-.653.653A.653.653,0,0,1,241.958,92.305Z" transform="translate(-229.557 -57.389)" fill="#fff"/>
    <path id="Path_111" data-name="Path 111" d="M22.279,39.742l-5.309,2.611V38.833H15.6a4.567,4.567,0,1,0-7.11-5.615,4.568,4.568,0,1,0-7.11,5.615H0V50.581H16.971V47.061l5.309,2.611ZM12.4,32.305a3.264,3.264,0,1,1-3.264,3.264A3.267,3.267,0,0,1,12.4,32.305ZM9.207,38.833H7.763a4.6,4.6,0,0,0,.722-.913A4.6,4.6,0,0,0,9.207,38.833Zm-7.9-3.264a3.264,3.264,0,1,1,3.264,3.264A3.267,3.267,0,0,1,1.305,35.569Zm14.36,13.707H1.305V40.138h14.36Zm5.309-1.7-4-1.969v-1.8l4-1.969Z" fill="#fff"/>
  </g>
</svg>
