<svg xmlns="http://www.w3.org/2000/svg" width="136.467" height="101.41" viewBox="0 0 136.467 101.41">
  <g id="salad" transform="translate(0 0)">
    <path id="Path_13" data-name="Path 13" d="M259.488,251.691l4.09,1.561A2,2,0,0,0,265,249.517l-4.09-1.561a2,2,0,0,0-1.426,3.735Z" transform="translate(-189.382 -199.298)" fill="#ef9cc3"/>
    <path id="Path_14" data-name="Path 14" d="M129.175,125.218h-1.087a13.36,13.36,0,0,0,4.572-4.628,9.193,9.193,0,0,0-3.106-11.934A19.505,19.505,0,0,0,97.625,87.684L88.389,74.445a2,2,0,0,0-2.945-.37A24.959,24.959,0,0,0,79.433,81.8a13.073,13.073,0,0,0-5.493,2.037,33.979,33.979,0,0,0-3.093-11.522A2,2,0,0,0,67.3,74.159c2.806,5.4,2.89,13.482,2.891,13.562a2,2,0,0,0,3.416,1.4,15.221,15.221,0,0,1,4.08-2.77,24.932,24.932,0,0,0,1.3,16.983l-17.938,8.028c-4.077-7.06-8.307-10.393-12.584-9.913a8.731,8.731,0,0,0-2.965.833c-3.22-5.133-4.478-9.132-3.368-10.81.417-.63,1.687-2.549,5.522-1.684a15.291,15.291,0,0,1,4.22,1.731A2,2,0,0,0,54.9,89.409a39.288,39.288,0,0,1-.739-5.808c0-.057,0-.114-.009-.171-.2-3.905.133-8.492,2.089-11.213a5.7,5.7,0,0,1,4.234-2.41,6.792,6.792,0,0,1,1.608,0,2,2,0,0,0,.51-3.965,10.775,10.775,0,0,0-2.557-.013,9.617,9.617,0,0,0-7.042,4.051c-1.657,2.305-2.6,5.506-2.835,9.537a19.51,19.51,0,0,0-26.916,27.022,12.917,12.917,0,0,0,.039,3.242c-3.89-1.118-10.093-2.294-14.5-.188a8.68,8.68,0,0,0-4.719,5.611c-1.314,4.452.669,7.762,3.436,10.111H7.292A7.3,7.3,0,0,0,0,132.509v.43a7.3,7.3,0,0,0,7.291,7.291H13.9l16.031,15.624a6.806,6.806,0,0,0-1.876,4.7v.057a6.632,6.632,0,0,0,6.832,6.566h66.688a6.632,6.632,0,0,0,6.832-6.566v-.057a6.806,6.806,0,0,0-1.876-4.7l16.031-15.624h6.611a7.3,7.3,0,0,0,7.291-7.291v-.43a7.3,7.3,0,0,0-7.292-7.291Zm-.025-6.543c-1.341,2.459-5.157,4.763-10.469,6.32a1.991,1.991,0,0,0-.493.223H81.025a24.853,24.853,0,0,0,3.561-19.485c1.413-1.241,2.72-1.8,3.894-1.673,1.963.221,2.373,1,2.508,1.25.845,1.594-.313,4.831-1,6.146a2,2,0,0,0,3.328,2.185c3.251-4.072,8.286-8.949,11.815-10.642a1.994,1.994,0,0,0,.436-.2,3.328,3.328,0,0,1,2.5-.275c.99.427,2.291,1.334,2.163,4.267a13.18,13.18,0,0,1-.826,3.843,2,2,0,0,0,2.612,2.609c2.689-1.111,10.6-3.546,14.868-1.506a5.166,5.166,0,0,1,2.267,6.933Zm-61.228,5.11-1.788-4a2,2,0,1,0-3.649,1.633l1.7,3.8h-6.3l.733-1.921a2,2,0,0,0-3.735-1.426l-1.277,3.346h-9.3c-.032-.043-.823-1-1.158-1.464l37.6-16.83a21.249,21.249,0,0,1-4.4,17.885,2,2,0,0,0-.26.408H68a1.988,1.988,0,0,0-.074-1.433ZM104.56,97.624a7.863,7.863,0,1,1,11.79,9.975,2.021,2.021,0,0,0-.206.195c-.727.169-1.411.349-2.035.529.461-3.5-.23-7.641-4.459-9.466a6.416,6.416,0,0,0-4.347-.169Zm6.851-11.656a15.529,15.529,0,0,1,15.512,15.512,15.343,15.343,0,0,1-1.112,5.766,17.764,17.764,0,0,0-3.891-.262,11.864,11.864,0,0,0-19.81-12.87l-2.154-3.088A15.477,15.477,0,0,1,111.411,85.968Zm-24.965-7.32,15.166,21.74a33.842,33.842,0,0,0-4.821,3.744c-.548.5-1.078,1-1.584,1.5a6.533,6.533,0,0,0-.68-2.183c-.7-1.325-2.237-2.983-5.6-3.362a8.5,8.5,0,0,0-6.132,1.952,21.058,21.058,0,0,1,3.65-23.392Zm-43.79,26.609a6.734,6.734,0,0,0-.473,1.738c-.506-.5-1.036-1-1.584-1.5a25.821,25.821,0,0,0-7.371-5.057c-.021-.033-.039-.067-.062-.1a7.866,7.866,0,0,1,6.454-12.36c.068,0,.135.006.2.008A8.912,8.912,0,0,0,38.8,89.267c-2.225,3.365-.961,8.6,3.861,15.99ZM24.108,95.841a15.51,15.51,0,0,1,26.11-11.324c.049.671.109,1.31.175,1.9a14,14,0,0,0-4.817-.829A11.865,11.865,0,0,0,28.493,99.959a5.6,5.6,0,0,0-.751.26,7.523,7.523,0,0,0-2.424,1.633,15.475,15.475,0,0,1-1.209-6.011Zm-9.06,29.229c-5.763-2.408-8.168-5.379-7.149-8.831a4.77,4.77,0,0,1,2.606-3.134c4.251-2.037,12.177.4,14.871,1.5a2,2,0,0,0,2.613-2.6,13.176,13.176,0,0,1-.827-3.847c-.128-2.933,1.173-3.84,2.163-4.267,2.851-1.229,10.4,5.664,14.754,11.113a2,2,0,0,0,3.329-2.181c-.693-1.318-1.851-4.556-1.006-6.15.135-.255.546-1.029,2.508-1.25,2.4-.272,5.446,2.472,8.467,7.583l-17.993,8.053a2,2,0,0,0-.915,2.824c.262.455.545.9.836,1.336H15.33a1.946,1.946,0,0,0-.282-.148Zm89.363,35.537a2.632,2.632,0,0,1-2.834,2.568H34.889a2.632,2.632,0,0,1-2.834-2.568v-.057a2.838,2.838,0,0,1,2.834-2.834h66.688a2.838,2.838,0,0,1,2.834,2.834Zm28.057-27.668a3.3,3.3,0,0,1-3.293,3.293H38.243a2,2,0,0,0,0,4h78.593L103,153.718H33.469L19.63,140.23H30.246a2,2,0,0,0,0-4H7.291A3.3,3.3,0,0,1,4,132.939v-.43a3.3,3.3,0,0,1,3.293-3.293H129.175a3.3,3.3,0,0,1,3.293,3.293Z" transform="translate(0 -65.762)" fill="#ef9cc3"/>
    <path id="Path_15" data-name="Path 15" d="M322.669,169.82l.08,0,3.762-.148a2,2,0,1,0-.157-3.995l-3.762.148a2,2,0,0,0,.077,4Z" transform="translate(-235.201 -139.044)" fill="#ef9cc3"/>
  </g>
</svg>
