<svg xmlns="http://www.w3.org/2000/svg" width="25.479" height="17.839" viewBox="0 0 25.479 17.839">
  <path id="youtube" d="M24.955-3.291a3.192,3.192,0,0,0-2.246-2.246c-1.994-.546-9.969-.546-9.969-.546s-7.975,0-9.969.525A3.257,3.257,0,0,0,.525-3.291,33.634,33.634,0,0,0,0,2.838,33.51,33.51,0,0,0,.525,8.966a3.192,3.192,0,0,0,2.246,2.246c2.015.546,9.969.546,9.969.546s7.975,0,9.969-.525a3.192,3.192,0,0,0,2.246-2.246,33.645,33.645,0,0,0,.525-6.128,31.927,31.927,0,0,0-.525-6.149ZM10.2,6.657V-.982l6.632,3.82Zm0,0" transform="translate(-0.001 6.082)" fill="#fff"/>
</svg>
